<?xml version="1.0" encoding="UTF-8" standalone="no"?>
<svg
   xmlns:dc="http://purl.org/dc/elements/1.1/"
   xmlns:cc="http://creativecommons.org/ns#"
   xmlns:rdf="http://www.w3.org/1999/02/22-rdf-syntax-ns#"
   xmlns:svg="http://www.w3.org/2000/svg"
   xmlns="http://www.w3.org/2000/svg"
   xmlns:sodipodi="http://sodipodi.sourceforge.net/DTD/sodipodi-0.dtd"
   xmlns:inkscape="http://www.inkscape.org/namespaces/inkscape"
   viewBox="0 0 512 512"
   version="1.1"
   id="svg10"
   sodipodi:docname="about.svg"
   inkscape:version="0.92.4 5da689c313, 2019-01-14">
  <metadata
     id="metadata14">
    <rdf:RDF>
      <cc:Work
         rdf:about="">
        <dc:format>image/svg+xml</dc:format>
        <dc:type
           rdf:resource="http://purl.org/dc/dcmitype/StillImage" />
        <dc:title></dc:title>
      </cc:Work>
    </rdf:RDF>
  </metadata>
  <sodipodi:namedview
     pagecolor="#ffffff"
     bordercolor="#666666"
     borderopacity="1"
     objecttolerance="10"
     gridtolerance="10"
     guidetolerance="10"
     inkscape:pageopacity="0"
     inkscape:pageshadow="2"
     inkscape:window-width="640"
     inkscape:window-height="480"
     id="namedview12"
     showgrid="false"
     inkscape:zoom="1.0042832"
     inkscape:cx="307.5686"
     inkscape:cy="256"
     inkscape:current-layer="svg10" />
  <defs
     id="defs4">
    <style
       id="style2">.fa-secondary{opacity:.4}</style>
  </defs>
  <path
     d="M256 8C119 8 8 119.08 8 256s111 248 248 248 248-111 248-248S393 8 256 8zm0 376a32 32 0 1 1 32-32 32 32 0 0 1-32 32zm38.24-238.41l-12.8 128A16 16 0 0 1 265.52 288h-19a16 16 0 0 1-15.92-14.41l-12.8-128A16 16 0 0 1 233.68 128h44.64a16 16 0 0 1 15.92 17.59z"
     class="fa-secondary"
     id="path6"
     style="fill:#008b8b;opacity:0.863" />
  <path
     d="M278.32 128h-44.64a16 16 0 0 0-15.92 17.59l12.8 128A16 16 0 0 0 246.48 288h19a16 16 0 0 0 15.92-14.41l12.8-128A16 16 0 0 0 278.32 128zM256 320a32 32 0 1 0 32 32 32 32 0 0 0-32-32z"
     class="fa-primary"
     id="path8"
     style="fill:#f0f8ff" />
</svg>
