<?xml version="1.0" encoding="UTF-8" standalone="no"?>
<svg
   xmlns:dc="http://purl.org/dc/elements/1.1/"
   xmlns:cc="http://creativecommons.org/ns#"
   xmlns:rdf="http://www.w3.org/1999/02/22-rdf-syntax-ns#"
   xmlns:svg="http://www.w3.org/2000/svg"
   xmlns="http://www.w3.org/2000/svg"
   xmlns:sodipodi="http://sodipodi.sourceforge.net/DTD/sodipodi-0.dtd"
   xmlns:inkscape="http://www.inkscape.org/namespaces/inkscape"
   width="48"
   height="48"
   version="1"
   id="svg22"
   sodipodi:docname="convert.svg"
   inkscape:version="0.92.4 5da689c313, 2019-01-14">
  <metadata
     id="metadata28">
    <rdf:RDF>
      <cc:Work
         rdf:about="">
        <dc:format>image/svg+xml</dc:format>
        <dc:type
           rdf:resource="http://purl.org/dc/dcmitype/StillImage" />
      </cc:Work>
    </rdf:RDF>
  </metadata>
  <defs
     id="defs26" />
  <sodipodi:namedview
     pagecolor="#ffffff"
     bordercolor="#666666"
     borderopacity="1"
     objecttolerance="10"
     gridtolerance="10"
     guidetolerance="10"
     inkscape:pageopacity="0"
     inkscape:pageshadow="2"
     inkscape:window-width="640"
     inkscape:window-height="480"
     id="namedview24"
     showgrid="false"
     inkscape:zoom="10.712354"
     inkscape:cx="28.834556"
     inkscape:cy="24"
     inkscape:current-layer="svg22" />
  <path
     style="opacity:0.2;fill-rule:evenodd;stroke-width:1.1506027"
     d="m 25.10662,47.497122 c 3.82029,-0.07193 7.631079,-1.264512 10.972222,-3.56649 4.927233,-3.394741 8.117173,-8.821172 9.195817,-14.82767 0.543318,-0.443433 1.138907,-0.799358 1.553552,-1.438243 1.353555,-2.085572 1.498002,-5.680813 0.01309,-7.986111 a 5.5396768,5.9680315 0 0 0 -0.0039,-0.0059 l -1.564445,-2.419759 a 5.5396768,5.9680315 0 0 0 -0.0039,-0.0039 l -1.566668,-2.41745 a 5.5396768,5.9680315 0 0 0 -0.0039,-0.0059 c -1.489447,-2.292422 -3.714716,-3.126058 -5.664716,-3.126058 -1.949998,0 -4.175257,0.833585 -5.66462,3.125919 a 5.5396768,5.9680315 0 0 0 -0.0059,0.0078 l -1.564369,2.417279 -1.566532,2.417276 a 5.5396768,5.9680315 0 0 0 -0.0059,0.0098 c -1.483847,2.30345 -1.342513,5.895555 0.0078,7.981434 0.05765,0.0889 0.155781,0.11517 0.21637,0.20047 -0.427626,0.777414 -0.982587,1.479542 -1.724483,1.990697 -1.778842,1.22558 -3.986358,1.268397 -5.803099,0.111941 -1.827592,-1.165407 -4.309193,-1.502847 -6.294259,-0.818177 -1.98507,0.684667 -3.420672,2.097778 -4.329603,3.752951 -0.908932,1.655176 -1.3681164,3.693494 -0.96935,5.897512 0.398768,2.204015 1.867563,4.38564 3.695636,5.55017 v -0.002 c 3.413611,2.174689 7.262097,3.225673 11.082682,3.15384 z"
     id="path2"
     inkscape:connector-curvature="0" />
  <path
     style="fill:#ff9932;fill-rule:evenodd;stroke-width:1.1506027"
     d="m 25.10662,46.303615 c 3.82029,-0.07189 7.631079,-1.264505 10.972222,-3.566495 4.927233,-3.394745 8.117173,-8.821185 9.195817,-14.827654 0.543318,-0.443432 1.138907,-0.799386 1.553552,-1.43826 1.353555,-2.08558 1.498002,-5.680795 0.01309,-7.986109 a 5.5396768,5.9680315 0 0 0 -0.0039,-0.0059 l -1.56446,-2.419752 a 5.5396768,5.9680315 0 0 0 -0.0039,-0.0039 L 43.70247,13.637611 a 5.5396768,5.9680315 0 0 0 -0.0039,-0.0059 c -1.489392,-2.292323 -3.714657,-3.125944 -5.664654,-3.125944 -1.95,0 -4.17526,0.833577 -5.664621,3.12591 a 5.5396768,5.9680315 0 0 0 -0.0059,0.0078 l -1.564373,2.417276 -1.56653,2.417277 a 5.5396768,5.9680315 0 0 0 -0.0059,0.0098 c -1.483847,2.303478 -1.342512,5.895544 0.0078,7.981456 0.05765,0.0889 0.155781,0.115105 0.216369,0.200451 -0.427624,0.77741 -0.982584,1.479553 -1.724483,1.990711 -1.778841,1.225587 -3.986355,1.268371 -5.803098,0.111951 -1.827592,-1.165403 -4.309193,-1.502881 -6.29426,-0.818208 -1.985066,0.684669 -3.420673,2.097776 -4.3296,3.75295 -0.908937,1.655212 -1.3681163,3.693511 -0.969349,5.897508 0.398767,2.204015 1.867562,4.385646 3.695632,5.550192 v -0.002 c 3.413615,2.174728 7.2621,3.225709 11.082682,3.153865 z"
     id="path4"
     inkscape:connector-curvature="0" />
  <path
     style="opacity:0.2;fill-rule:evenodd;stroke-width:1.1506027"
     d="M 22.992632,2.1518697 C 19.172342,2.2237097 15.362105,3.4185814 12.020979,5.7205538 7.0937373,9.1153036 3.9045663,14.541231 2.8259207,20.54772 c -0.5433214,0.443435 -1.1388149,0.799322 -1.5534522,1.438194 -1.35356532,2.085576 -1.49803682,5.680531 -0.013,7.985831 a 5.5396768,5.9680315 0 0 0 0.00438,0.0059 l 1.5642862,2.419514 a 5.5396768,5.9680315 0 0 0 0.00438,0.0039 l 1.5664497,2.417242 a 5.5396768,5.9680315 0 0 0 0.00438,0.0059 c 1.4893562,2.292233 3.7135042,3.125807 5.6634996,3.125807 1.95,0 4.176288,-0.833476 5.665675,-3.125807 a 5.5396768,5.9680315 0 0 0 0.0059,-0.0078 l 1.564282,-2.417191 1.56645,-2.417196 a 5.5396768,5.9680315 0 0 0 0.0059,-0.0098 c 1.483848,-2.30347 1.342505,-5.895275 -0.0078,-7.981178 -0.05765,-0.0889 -0.156065,-0.11512 -0.216655,-0.200455 0.42761,-0.77741 0.98271,-1.47948 1.724599,-1.990629 1.778848,-1.225579 3.985424,-1.268388 5.802162,-0.111949 0.661833,0.42202 1.411726,0.732051 2.190428,0.927712 0.171047,-0.768092 0.448784,-1.49863 0.855811,-2.130491 l 0.0059,-0.0098 1.566448,-2.41719 1.564285,-2.417195 0.0059,-0.0078 C 33.769972,11.472397 35.825279,10.618 37.689706,10.525574 37.210554,8.4358532 35.811934,6.4130213 34.07621,5.307309 v 0.00205 C 30.663342,3.1332574 26.81323,2.0800257 22.992632,2.1518697 Z"
     id="path6"
     inkscape:connector-curvature="0" />
  <path
     style="fill:#ffda43;fill-rule:evenodd;stroke-width:1.1506027"
     d="M 22.993378,0.95954005 C 19.173088,1.0313801 15.362299,2.2240421 12.021136,4.5260154 7.0939081,7.9207673 3.9039782,13.347194 2.8253325,19.35369 c -0.5433182,0.44343 -1.1389102,0.79936 -1.5535504,1.438238 -1.3535622,2.085578 -1.49801751,5.680797 -0.012978,7.986104 a 5.5396768,5.9680315 0 0 0 0.00437,0.0059 l 1.5643687,2.419622 a 5.5396768,5.9680315 0 0 0 0.00437,0.0039 l 1.5665324,2.417274 a 5.5396768,5.9680315 0 0 0 0.00437,0.0059 c 1.4893565,2.292234 3.7146226,3.12586 5.6646198,3.12586 1.949997,0 4.17525,-0.833577 5.664637,-3.12591 a 5.5396768,5.9680315 0 0 0 0.0059,-0.0078 l 1.564362,-2.417267 1.566535,-2.417282 a 5.5396768,5.9680315 0 0 0 0.0059,-0.0098 c 1.483843,-2.303464 1.34251,-5.895557 -0.0078,-7.981446 -0.05765,-0.0889 -0.155771,-0.11514 -0.21636,-0.200473 0.427609,-0.777408 0.982591,-1.479549 1.724478,-1.990701 1.778832,-1.225578 3.98635,-1.268379 5.803106,-0.111941 1.827576,1.165409 4.309194,1.502863 6.294245,0.818184 1.985078,-0.684669 3.420682,-2.097765 4.329607,-3.752956 0.908937,-1.655184 1.368113,-3.693495 0.969344,-5.8975054 C 37.372811,7.4573272 35.904018,5.2756972 34.075961,4.1111633 v 0.002 C 30.662424,1.9386784 26.81394,0.8876952 22.993378,0.95954005 Z"
     id="path8"
     inkscape:connector-curvature="0" />
  <path
     style="opacity:0.2;fill:#ffffff;fill-rule:evenodd;stroke-width:1.1506027"
     d="M 22.992632,0.95842295 C 19.172342,1.0302622 15.362105,2.2251345 12.020979,4.5271081 7.0937373,7.9218588 3.9045663,13.347796 2.8259207,19.354274 2.2825993,19.797699 1.6871058,20.1536 1.2724685,20.792472 0.48312149,22.008693 0.12043034,23.736272 0.23683127,25.42408 0.32302513,24.144112 0.66983392,22.914457 1.2724685,21.985914 1.6871058,21.347042 2.2825993,20.991155 2.8259207,20.54772 3.9045663,14.541231 7.0937373,9.1153036 12.020979,5.7205538 15.362105,3.4185814 19.172342,2.2237101 22.992632,2.1518697 c 3.820598,-0.071844 7.67071,0.9813877 11.084343,3.1561057 v -0.00205 c 1.82806,1.1645329 3.295278,3.3459869 3.694045,5.5499866 0.061,0.336559 0.09673,0.667259 0.11917,0.995309 C 37.93797,11.14549 37.90742,10.415512 37.77102,9.6624406 37.372253,7.4582394 35.905035,5.2767952 34.076975,4.1122591 v 0.00202 C 30.663342,1.9398108 26.81323,0.8865781 22.992632,0.95842295 Z M 19.053772,21.146777 c -0.144183,0.206897 -0.280956,0.421483 -0.402993,0.643347 0.06068,0.08531 0.158955,0.111492 0.216652,0.200449 0.600495,0.927028 0.947351,2.154487 1.033483,3.43116 0.105734,-1.535219 -0.196965,-3.08903 -0.847142,-4.274956 z"
     id="path10"
     inkscape:connector-curvature="0" />
  <path
     style="opacity:0.2;fill-rule:evenodd;stroke-width:1.1506027"
     d="m 23.224457,8.1235416 c -2.821668,0.052871 -5.630349,0.9301199 -8.096588,2.6269844 -4.48789,3.08785 -7.1520089,8.420188 -7.1519318,14.076594 H 7.052957 a 1.3049626,1.1634892 0 0 0 -1.1331324,1.743551 l 1.5664533,2.419543 1.5686284,2.417186 a 1.3049626,1.1634892 0 0 0 2.2576017,0 l 1.566453,-2.417186 1.568603,-2.419543 A 1.3049626,1.1634892 0 0 0 13.316598,24.82712 h -0.894809 c -0.0013,-4.044439 1.884181,-7.843643 5.095842,-10.053394 3.52982,-2.428639 8.017364,-2.513731 11.623829,-0.2191 a 2.2190525,2.3873812 0 1 0 2.259748,-4.109455 C 28.881461,8.8419352 26.04616,8.07055 23.224457,8.1235416 Z"
     id="path12"
     inkscape:connector-curvature="0" />
  <path
     style="fill:#3f3f3f;fill-rule:evenodd;stroke-width:1.1506027"
     d="m 23.224457,6.9279856 c -2.821668,0.052969 -5.630349,0.9301239 -8.096588,2.6269814 -4.48789,3.087849 -7.1520089,8.420202 -7.1519318,14.076608 H 7.052957 a 1.3049626,1.1634892 0 0 0 -1.1331324,1.743544 l 1.5664533,2.419526 1.5686284,2.417187 a 1.3049626,1.1634892 0 0 0 2.2576017,0 l 1.566453,-2.417187 1.568603,-2.419526 a 1.3049626,1.1634892 0 0 0 -1.130966,-1.743544 h -0.894809 c -0.0013,-4.044431 1.884181,-7.843646 5.095842,-10.053388 3.52982,-2.428659 8.017364,-2.513762 11.623829,-0.219113 A 2.2190525,2.3873812 0 1 0 31.401208,9.2496144 C 28.881461,7.646391 26.04616,6.8749968 23.224457,6.9279856 Z"
     id="path14"
     inkscape:connector-curvature="0" />
  <path
     style="fill:#ff9932;fill-rule:evenodd;stroke-width:1.1506027"
     d="m 47.894428,22.753899 c 0.05338,-1.508906 -0.277638,-3.064774 -1.053244,-4.268802 l -0.0039,-0.0059 -1.564364,-2.419606 -0.0039,-0.0039 -1.566535,-2.417233 -0.0039,-0.0059 c -1.489355,-2.292521 -3.71462,-3.126149 -5.664617,-3.126149 -1.949997,0 -4.175254,0.833578 -5.664619,3.125912 l -0.0059,0.0078 -1.564369,2.417277 -1.566534,2.417276 -0.0059,0.0098 c -0.478096,0.742197 -0.787484,1.618157 -0.942041,2.534437 z"
     id="path16"
     inkscape:connector-curvature="0" />
  <path
     style="opacity:0.2;fill-rule:evenodd;stroke-width:1.1506027"
     d="m 24.875528,41.530703 c 2.821681,-0.05276 5.63035,-0.93011 8.096576,-2.626977 4.487914,-3.087856 7.152027,-8.420193 7.151953,-14.076606 h 0.922975 a 1.3049626,1.1634892 0 0 0 1.133129,-1.743541 l -1.566448,-2.41954 -1.568623,-2.417195 a 1.3049626,1.1634892 0 0 0 -2.257603,0 l -1.566454,2.417195 -1.568601,2.41954 a 1.3049626,1.1634892 0 0 0 1.130966,1.743541 h 0.894801 c 0.0013,4.044448 -1.884191,7.843657 -5.095852,10.0534 -3.529823,2.428638 -8.017345,2.513735 -11.62381,0.219101 a 2.2190525,2.3873812 0 1 0 -2.259758,4.109458 c 2.519757,1.603239 5.355058,2.374622 8.176749,2.321624 z"
     id="path18"
     inkscape:connector-curvature="0" />
  <path
     style="fill:#3f3f3f;fill-rule:evenodd;stroke-width:1.1506027"
     d="m 24.875528,40.335176 c 2.821681,-0.05275 5.63035,-0.930156 8.096576,-2.626983 4.487914,-3.087862 7.152027,-8.420226 7.151953,-14.076618 h 0.922975 a 1.3049626,1.1634892 0 0 0 1.133129,-1.743564 L 40.613713,19.468499 39.04509,17.051294 a 1.3049626,1.1634892 0 0 0 -2.257603,0 l -1.566454,2.417205 -1.568601,2.419512 a 1.3049626,1.1634892 0 0 0 1.130966,1.743564 h 0.894801 c 0.0013,4.04444 -1.884191,7.843637 -5.095852,10.053381 -3.529823,2.428656 -8.017345,2.513749 -11.62381,0.219115 a 2.2190545,2.3873834 0 1 0 -2.259758,4.109475 c 2.519757,1.603214 5.355058,2.374604 8.176749,2.32163 z"
     id="path20"
     inkscape:connector-curvature="0" />
</svg>
