<?xml version="1.0" encoding="UTF-8" standalone="no"?>
<!-- Generator: Adobe Illustrator 19.0.0, SVG Export Plug-In . SVG Version: 6.00 Build 0)  -->

<svg
   xmlns:dc="http://purl.org/dc/elements/1.1/"
   xmlns:cc="http://creativecommons.org/ns#"
   xmlns:rdf="http://www.w3.org/1999/02/22-rdf-syntax-ns#"
   xmlns:svg="http://www.w3.org/2000/svg"
   xmlns="http://www.w3.org/2000/svg"
   xmlns:xlink="http://www.w3.org/1999/xlink"
   xmlns:sodipodi="http://sodipodi.sourceforge.net/DTD/sodipodi-0.dtd"
   xmlns:inkscape="http://www.inkscape.org/namespaces/inkscape"
   version="1.1"
   id="Capa_1"
   x="0px"
   y="0px"
   viewBox="0 0 53.255 53.255"
   style="enable-background:new 0 0 53.255 53.255;"
   xml:space="preserve"
   sodipodi:docname="cut.svg"
   inkscape:version="0.92.4 5da689c313, 2019-01-14"><metadata
   id="metadata59"><rdf:RDF><cc:Work
       rdf:about=""><dc:format>image/svg+xml</dc:format><dc:type
         rdf:resource="http://purl.org/dc/dcmitype/StillImage" /><dc:title /></cc:Work></rdf:RDF></metadata><defs
   id="defs57"><linearGradient
     inkscape:collect="always"
     xlink:href="#linearGradient4488"
     id="linearGradient4641"
     x1="24.636236"
     y1="118.53715"
     x2="24.636236"
     y2="110.80067"
     gradientUnits="userSpaceOnUse" /><linearGradient
     inkscape:collect="always"
     id="linearGradient4488"><stop
       style="stop-color:#ffffff;stop-opacity:1;"
       offset="0"
       id="stop4490" /><stop
       style="stop-color:#ffffff;stop-opacity:0;"
       offset="1"
       id="stop4492" /></linearGradient><filter
     inkscape:collect="always"
     id="filter4691"><feGaussianBlur
       inkscape:collect="always"
       stdDeviation="0.41898454"
       id="feGaussianBlur4693" /></filter><filter
     inkscape:collect="always"
     id="filter4711"><feGaussianBlur
       inkscape:collect="always"
       stdDeviation="0.71627592"
       id="feGaussianBlur4713" /></filter><filter
     inkscape:collect="always"
     id="filter4715"><feGaussianBlur
       inkscape:collect="always"
       stdDeviation="0.71627592"
       id="feGaussianBlur4717" /></filter><radialGradient
     inkscape:collect="always"
     xlink:href="#linearGradient4722"
     id="radialGradient4728"
     cx="66"
     cy="54"
     fx="66.495979"
     fy="53.140942"
     r="2"
     gradientUnits="userSpaceOnUse"
     gradientTransform="matrix(0.73227273,-0.42292205,0.4227778,0.73154569,-62.538606,26.631364)" /><linearGradient
     inkscape:collect="always"
     id="linearGradient4722"><stop
       style="stop-color:#dfdfdf;stop-opacity:1"
       offset="0"
       id="stop4724" /><stop
       style="stop-color:#606060;stop-opacity:1"
       offset="1"
       id="stop4726" /></linearGradient><linearGradient
     gradientTransform="matrix(0.42688339,0,0,0.42688339,-0.7206439,-0.40857345)"
     inkscape:collect="always"
     xlink:href="#linearGradient4792"
     id="linearGradient4259"
     x1="65.414917"
     y1="63.2187"
     x2="71.566734"
     y2="58.624897"
     gradientUnits="userSpaceOnUse" /><linearGradient
     inkscape:collect="always"
     id="linearGradient4792"><stop
       style="stop-color:#000000;stop-opacity:1;"
       offset="0"
       id="stop4794" /><stop
       style="stop-color:#000000;stop-opacity:0;"
       offset="1"
       id="stop4796" /></linearGradient><linearGradient
     inkscape:collect="always"
     xlink:href="#linearGradient4792"
     id="linearGradient3637"
     x1="61.911907"
     y1="72.456772"
     x2="59.719414"
     y2="73.709625"
     gradientUnits="userSpaceOnUse"
     gradientTransform="matrix(0.79150279,0,0,0.79097497,-22.97776,-26.886362)" /><clipPath
     clipPathUnits="userSpaceOnUse"
     id="clipPath4455"><path
       inkscape:connector-curvature="0"
       style="fill:#343434;fill-opacity:1;fill-rule:evenodd;stroke:none;stroke-width:6;stroke-linecap:round;stroke-linejoin:round;stroke-miterlimit:4;stroke-dasharray:none;stroke-opacity:1"
       d="m 75.1875,70.0625 c -0.856681,0.05009 -1.585955,0.641049 -1.8125,1.46875 l -2.15625,8.0625 c -0.12671,0.509335 -0.04815,1.048066 0.21875,1.5 L 89.625,112.5625 c 2.347816,4.06383 5.542933,7.16167 9,8.90625 3.45707,1.74458 7.34864,2.14876 10.53125,0.3125 3.18256,-1.83623 4.77875,-5.41426 5,-9.28125 0.22125,-3.86699 -0.87023,-8.18495 -3.21875,-12.25 -2.3484,-4.064847 -5.54173,-7.169784 -9,-8.90625 C 98.479225,89.607284 94.586162,89.2278 91.40625,91.0625 90.654039,91.496499 90.578013,91.480641 90,91.1875 89.421987,90.894359 88.429852,89.981353 87.25,88.34375 84.890296,85.068543 81.724299,79.185679 77.03125,71.0625 c -0.376511,-0.65468 -1.089664,-1.041475 -1.84375,-1 z m 22.75,28.96875 c 1.910083,-0.131349 5.35613,1.85167 7.5,5.5625 1.31974,2.28435 1.89273,4.67398 1.8125,6.53125 -0.0802,1.85727 -0.74835,3.00743 -1.65625,3.53125 -0.90784,0.52379 -2.19441,0.51626 -3.84375,-0.34375 -1.64934,-0.86001 -3.461233,-2.55894 -4.78125,-4.84375 -1.319749,-2.28436 -1.892729,-4.70523 -1.8125,-6.5625 0.08023,-1.85727 0.717103,-3.007424 1.625,-3.53125 0.373276,-0.215369 0.739601,-0.3151 1.15625,-0.34375 z"
       id="path4457"
       sodipodi:nodetypes="cccccsssssssscccsssssssc" /></clipPath><filter
     inkscape:collect="always"
     id="filter4475"><feGaussianBlur
       inkscape:collect="always"
       stdDeviation="0.47498194"
       id="feGaussianBlur4477" /></filter><linearGradient
     inkscape:collect="always"
     xlink:href="#linearGradient4488"
     id="linearGradient4494"
     x1="100.23751"
     y1="84.952927"
     x2="115.33315"
     y2="111.09933"
     gradientUnits="userSpaceOnUse"
     gradientTransform="matrix(0.48256036,0,0,0.48256036,-5.9097535,-5.5295943)" /><clipPath
     clipPathUnits="userSpaceOnUse"
     id="clipPath1972"><path
       inkscape:connector-curvature="0"
       style="fill:#343434;fill-opacity:1;fill-rule:evenodd;stroke:none;stroke-width:6;stroke-linecap:round;stroke-linejoin:round;stroke-miterlimit:4;stroke-dasharray:none;stroke-opacity:1"
       d="m 75.1875,70.0625 c -0.856681,0.05009 -1.585955,0.641049 -1.8125,1.46875 l -2.15625,8.0625 c -0.12671,0.509335 -0.04815,1.048066 0.21875,1.5 L 89.625,112.5625 c 2.347816,4.06383 5.542933,7.16167 9,8.90625 3.45707,1.74458 7.34864,2.14876 10.53125,0.3125 3.18256,-1.83623 4.77875,-5.41426 5,-9.28125 0.22125,-3.86699 -0.87023,-8.18495 -3.21875,-12.25 -2.3484,-4.064847 -5.54173,-7.169784 -9,-8.90625 C 98.479225,89.607284 94.586162,89.2278 91.40625,91.0625 90.654039,91.496499 90.578013,91.480641 90,91.1875 89.421987,90.894359 88.429852,89.981353 87.25,88.34375 84.890296,85.068543 81.724299,79.185679 77.03125,71.0625 c -0.376511,-0.65468 -1.089664,-1.041475 -1.84375,-1 z m 22.75,28.96875 c 1.910083,-0.131349 5.35613,1.85167 7.5,5.5625 1.31974,2.28435 1.89273,4.67398 1.8125,6.53125 -0.0802,1.85727 -0.74835,3.00743 -1.65625,3.53125 -0.90784,0.52379 -2.19441,0.51626 -3.84375,-0.34375 -1.64934,-0.86001 -3.461233,-2.55894 -4.78125,-4.84375 -1.319749,-2.28436 -1.892729,-4.70523 -1.8125,-6.5625 0.08023,-1.85727 0.717103,-3.007424 1.625,-3.53125 0.373276,-0.215369 0.739601,-0.3151 1.15625,-0.34375 z"
       id="path1970"
       sodipodi:nodetypes="cccccsssssssscccsssssssc" /></clipPath><linearGradient
     inkscape:collect="always"
     xlink:href="#linearGradient4488"
     id="linearGradient4574"
     gradientUnits="userSpaceOnUse"
     gradientTransform="matrix(-0.48256036,0,0,0.48256036,59.46977,-5.5295943)"
     x1="100.23751"
     y1="84.952927"
     x2="115.33315"
     y2="111.09933" /><linearGradient
     inkscape:collect="always"
     xlink:href="#linearGradient4488"
     id="linearGradient1291"
     gradientUnits="userSpaceOnUse"
     x1="24.636236"
     y1="118.53715"
     x2="24.636236"
     y2="110.80067" /></defs><sodipodi:namedview
   pagecolor="#ffffff"
   bordercolor="#666666"
   borderopacity="1"
   objecttolerance="10"
   gridtolerance="10"
   guidetolerance="10"
   inkscape:pageopacity="0"
   inkscape:pageshadow="2"
   inkscape:window-width="640"
   inkscape:window-height="480"
   id="namedview55"
   showgrid="false"
   inkscape:zoom="7.1016842"
   inkscape:cx="7.9170909"
   inkscape:cy="26.627501"
   inkscape:current-layer="Capa_1" />


























<path
   inkscape:connector-curvature="0"
   sodipodi:nodetypes="cccccsssssssscccsssssssc"
   id="path4566"
   d="m 22.184356,29.499967 c 0.365694,0.0212 0.677016,0.273642 0.773713,0.626973 l 0.920482,3.441769 c 0.05435,0.217403 0.02056,0.447392 -0.09324,0.640293 l -7.764006,13.433532 c -1.002295,1.734769 -2.366227,3.057198 -3.841992,3.801886 -1.47577,0.744766 -3.137015,0.917305 -4.4956195,0.133455 -1.3585822,-0.783852 -2.0399689,-2.311244 -2.1344162,-3.961996 -0.094444,-1.650791 0.3714858,-3.494057 1.3740299,-5.229352 1.0024944,-1.735208 2.3656749,-3.060663 3.8419528,-3.801934 1.476282,-0.741246 3.138161,-0.90327 4.495631,-0.120022 0.321105,0.185279 0.353535,0.178496 0.600285,0.05313 0.246749,-0.125207 0.670263,-0.5149 1.17394,-1.213953 1.007293,-1.398149 2.358825,-3.909431 4.362218,-7.377076 0.160734,-0.279474 0.465145,-0.444604 0.787052,-0.426879 z M 12.472762,41.86626 c -0.815386,-0.05617 -2.286445,0.790455 -3.2016275,2.374542 -0.5633778,0.975116 -0.8079764,1.99525 -0.773727,2.788059 0.034246,0.792858 0.3194585,1.283853 0.7070242,1.507419 0.3875438,0.22362 0.9367613,0.220411 1.6408363,-0.146632 0.704074,-0.367129 1.477542,-1.092394 2.041037,-2.067755 0.563378,-0.975111 0.807974,-2.008576 0.773726,-2.80138 -0.03426,-0.792876 -0.306121,-1.283859 -0.693686,-1.507428 -0.159342,-0.09199 -0.315725,-0.13456 -0.493583,-0.146686 z"
   style="fill:#333333;fill-opacity:1;fill-rule:evenodd;stroke:none;stroke-width:1.70753205;stroke-linecap:round;stroke-linejoin:round;stroke-miterlimit:4;stroke-dasharray:none;stroke-opacity:1" /><path
   inkscape:connector-curvature="0"
   sodipodi:nodetypes="cccscssssccsssscc"
   id="path4568"
   d="m 23.036439,29.606879 c 0.393898,0.0229 0.725271,0.298045 0.829399,0.678571 l 0.03023,0.120702 c -0.15881,-0.181336 -0.366584,-0.301967 -0.618253,-0.316702 -0.346721,-0.01921 -0.686461,0.151355 -0.859565,0.452417 -2.157697,3.73474 -3.604976,6.441353 -4.689886,7.947192 -0.542478,0.752872 -1.00097,1.177171 -1.26672,1.311925 -0.265744,0.134713 -0.302599,0.139242 -0.648472,-0.06047 -1.462022,-0.843426 -3.250708,-0.662565 -4.840704,0.135757 -1.5899939,0.798393 -3.0522215,2.217838 -4.1319265,4.086699 L 6.599235,43.480483 c 1.0797027,-1.868868 2.5419258,-3.288349 4.131922,-4.086683 1.589998,-0.798375 3.378677,-0.979273 4.840687,-0.135684 0.345834,0.199523 0.382683,0.195091 0.648436,0.06047 0.265765,-0.134718 0.724268,-0.559055 1.266736,-1.312002 1.084902,-1.505815 2.532168,-4.212401 4.689878,-7.947149 0.173121,-0.300977 0.512847,-0.471453 0.859545,-0.452395 z"
   style="opacity:0.77227723;fill:url(#linearGradient4574);fill-opacity:1;fill-rule:evenodd;stroke:none;stroke-width:1.70753205;stroke-linecap:round;stroke-linejoin:round;stroke-miterlimit:4;stroke-dasharray:none;stroke-opacity:1" /><path
   inkscape:connector-curvature="0"
   clip-path="url(#clipPath4455)"
   style="opacity:0.703;fill:#000000;fill-opacity:1;fill-rule:evenodd;stroke:#000000;stroke-width:3;stroke-linecap:round;stroke-linejoin:round;stroke-miterlimit:4;stroke-dasharray:none;stroke-opacity:1;filter:url(#filter4475)"
   d="m 75.1875,70.0625 c -0.856681,0.05009 -1.585955,0.641049 -1.8125,1.46875 l -2.15625,8.0625 c -0.12671,0.509335 -0.04815,1.048066 0.21875,1.5 L 89.625,112.5625 c 2.347816,4.06383 5.542933,7.16167 9,8.90625 3.45707,1.74458 7.34864,2.14876 10.53125,0.3125 3.18256,-1.83623 4.77875,-5.41426 5,-9.28125 0.22125,-3.86699 -0.87023,-8.18495 -3.21875,-12.25 -2.3484,-4.064847 -5.54173,-7.169784 -9,-8.90625 C 98.479225,89.607284 94.586162,89.2278 91.40625,91.0625 90.654039,91.496499 90.578013,91.480641 90,91.1875 89.421987,90.894359 88.429852,89.981353 87.25,88.34375 84.890296,85.068543 81.724299,79.185679 77.03125,71.0625 c -0.376511,-0.65468 -1.089664,-1.041475 -1.84375,-1 z m 22.75,28.96875 c 1.910083,-0.131349 5.35613,1.85167 7.5,5.5625 1.31974,2.28435 1.89273,4.67398 1.8125,6.53125 -0.0802,1.85727 -0.74835,3.00743 -1.65625,3.53125 -0.90784,0.52379 -2.19441,0.51626 -3.84375,-0.34375 -1.64934,-0.86001 -3.461233,-2.55894 -4.78125,-4.84375 -1.319749,-2.28436 -1.892729,-4.70523 -1.8125,-6.5625 0.08023,-1.85727 0.717103,-3.007424 1.625,-3.53125 0.373276,-0.215369 0.739601,-0.3151 1.15625,-0.34375 z"
   id="path4570"
   sodipodi:nodetypes="cccccsssssssscccsssssssc"
   transform="matrix(-0.42688354,0,0,0.42688354,54.280686,-0.40857978)" /><path
   inkscape:connector-curvature="0"
   style="fill:#333333;fill-opacity:1;fill-rule:evenodd;stroke:none;stroke-width:1.70753205;stroke-linecap:round;stroke-linejoin:round;stroke-miterlimit:4;stroke-dasharray:none;stroke-opacity:1"
   d="m 31.375672,29.499967 c -0.36571,0.0212 -0.677028,0.273642 -0.773729,0.626973 l -0.920468,3.441769 c -0.05437,0.217403 -0.02056,0.447392 0.09324,0.640293 l 7.763948,13.433532 c 1.002241,1.734769 2.366195,3.057198 3.84196,3.801886 1.47575,0.744766 3.137016,0.917305 4.495607,0.133455 1.35858,-0.783852 2.03997,-2.311244 2.134427,-3.961996 0.09426,-1.650791 -0.371502,-3.494057 -1.374038,-5.229352 -1.0025,-1.735208 -2.365676,-3.060663 -3.841955,-3.801934 -1.476278,-0.741246 -3.138156,-0.90327 -4.495617,-0.120022 -0.321102,0.185279 -0.353562,0.178496 -0.600297,0.05313 -0.246724,-0.125173 -0.670261,-0.514867 -1.173915,-1.213921 -1.007315,-1.398145 -2.358822,-3.909425 -4.362217,-7.37707 -0.160731,-0.279475 -0.465155,-0.444605 -0.787053,-0.42688 z m 9.711602,12.366293 c 0.81537,-0.05617 2.286436,0.790455 3.201622,2.374542 0.56336,0.975116 0.807977,1.99525 0.773727,2.788059 -0.03434,0.792858 -0.319459,1.283853 -0.707035,1.507419 -0.387546,0.22362 -0.936749,0.220411 -1.640831,-0.146632 -0.70408,-0.367129 -1.477548,-1.092394 -2.041045,-2.067755 -0.563365,-0.975111 -0.807964,-2.008576 -0.773719,-2.80138 0.0344,-0.792876 0.306129,-1.283859 0.693687,-1.507428 0.159397,-0.09199 0.315727,-0.13456 0.493594,-0.146686 z"
   id="path3845"
   sodipodi:nodetypes="cccccsssssssscccsssssssc" /><path
   inkscape:connector-curvature="0"
   style="opacity:0.77227723;fill:url(#linearGradient4494);fill-opacity:1;fill-rule:evenodd;stroke:none;stroke-width:1.70753205;stroke-linecap:round;stroke-linejoin:round;stroke-miterlimit:4;stroke-dasharray:none;stroke-opacity:1"
   d="m 30.523571,29.606879 c -0.393882,0.0229 -0.725254,0.298045 -0.829395,0.678571 l -0.03021,0.120702 c 0.158815,-0.181336 0.366575,-0.301967 0.618253,-0.316702 0.346718,-0.01921 0.686464,0.151355 0.859565,0.452417 2.157703,3.73474 3.60498,6.441353 4.68989,7.947192 0.542462,0.752872 1.000971,1.177171 1.266724,1.311925 0.265747,0.134713 0.302599,0.139242 0.648445,-0.06047 1.462007,-0.843504 3.250693,-0.662635 4.840683,0.135687 1.589994,0.798377 3.05219,2.217838 4.131906,4.086699 l 0.241282,-0.482552 C 45.881033,41.61147 44.41881,40.19203 42.828825,39.393681 41.238823,38.595286 39.45015,38.41441 37.988138,39.257991 c -0.345845,0.199507 -0.382695,0.195094 -0.648447,0.06048 -0.265765,-0.134728 -0.724269,-0.559054 -1.266738,-1.312001 -1.084904,-1.505815 -2.532179,-4.212386 -4.689883,-7.947154 -0.173114,-0.300991 -0.512844,-0.471462 -0.859556,-0.452388 z"
   id="path4479"
   sodipodi:nodetypes="cccscssssccsssscc" /><path
   transform="matrix(0.42688355,0,0,0.42688355,-0.7206466,-0.40857978)"
   inkscape:connector-curvature="0"
   sodipodi:nodetypes="cccccsssssssscccsssssssc"
   id="path4451"
   d="m 75.1875,70.0625 c -0.856681,0.05009 -1.585955,0.641049 -1.8125,1.46875 l -2.15625,8.0625 c -0.12671,0.509335 -0.04815,1.048066 0.21875,1.5 L 89.625,112.5625 c 2.347816,4.06383 5.542933,7.16167 9,8.90625 3.45707,1.74458 7.34864,2.14876 10.53125,0.3125 3.18256,-1.83623 4.77875,-5.41426 5,-9.28125 0.22125,-3.86699 -0.87023,-8.18495 -3.21875,-12.25 -2.3484,-4.064847 -5.54173,-7.169784 -9,-8.90625 C 98.479225,89.607284 94.586162,89.2278 91.40625,91.0625 90.654039,91.496499 90.578013,91.480641 90,91.1875 89.421987,90.894359 88.429852,89.981353 87.25,88.34375 84.890296,85.068543 81.724299,79.185679 77.03125,71.0625 c -0.376511,-0.65468 -1.089664,-1.041475 -1.84375,-1 z m 22.75,28.96875 c 1.910083,-0.131349 5.35613,1.85167 7.5,5.5625 1.31974,2.28435 1.89273,4.67398 1.8125,6.53125 -0.0802,1.85727 -0.74835,3.00743 -1.65625,3.53125 -0.90784,0.52379 -2.19441,0.51626 -3.84375,-0.34375 -1.64934,-0.86001 -3.461233,-2.55894 -4.78125,-4.84375 -1.319749,-2.28436 -1.892729,-4.70523 -1.8125,-6.5625 0.08023,-1.85727 0.717103,-3.007424 1.625,-3.53125 0.373276,-0.215369 0.739601,-0.3151 1.15625,-0.34375 z"
   style="opacity:0.70297032;fill:#000000;fill-opacity:1;fill-rule:evenodd;stroke:#000000;stroke-width:3;stroke-linecap:round;stroke-linejoin:round;stroke-miterlimit:4;stroke-dasharray:none;stroke-opacity:1;filter:url(#filter4475)"
   clip-path="url(#clipPath4455)" /><path
   inkscape:connector-curvature="0"
   style="fill:#b2b2b2;fill-opacity:1;fill-rule:evenodd;stroke:#4e4e4e;stroke-width:0.42688301px;stroke-linecap:butt;stroke-linejoin:miter;stroke-opacity:1;opacity:1"
   d="M 41.097241,0.40729364 22.172861,30.647351 21.681953,35.690542 c 0.839244,-1.452651 3.971379,-3.519318 6.26428,-4.133269 6.012518,-10.407048 9.501578,-19.697391 13.458187,-30.0043104 0.117131,-0.295172 0.165589,-0.872906 -0.307179,-1.14566896 z"
   id="path3506"
   sodipodi:nodetypes="cccccc" /><path
   inkscape:connector-curvature="0"
   style="fill:url(#linearGradient3637);fill-opacity:1;fill-rule:evenodd;stroke:none;stroke-width:0.42688301px;stroke-linecap:butt;stroke-linejoin:miter;stroke-opacity:1"
   d="m 24.785658,27.618997 -0.867129,0.240111 -0.613624,0.973827 1.840911,3.935338 c 0.779442,-0.44559 1.597321,-0.831647 2.347883,-1.080527 z"
   id="path3629" /><path
   inkscape:connector-curvature="0"
   style="fill:url(#linearGradient4259);fill-opacity:1;fill-rule:evenodd;stroke:none;stroke-width:0.42688301px;stroke-linecap:butt;stroke-linejoin:miter;stroke-opacity:1"
   d="m 27.960607,21.389168 -3.495127,5.58951 3.068229,4.695729 c 0.139296,-0.04557 0.279409,-0.08382 0.413554,-0.120051 1.092696,-1.891363 2.097578,-3.745773 3.041527,-5.576161 z"
   id="path4248" /><path
   inkscape:connector-curvature="0"
   sodipodi:nodetypes="cccccc"
   id="path2160"
   d="M 12.360182,0.40729364 31.284574,30.647351 31.775489,35.690542 C 30.936228,34.237891 27.804077,32.171224 25.511209,31.557273 19.498687,21.150225 16.009608,11.859882 12.052994,1.5529626 11.935941,1.2577906 11.887409,0.6800566 12.360182,0.40729364 Z"
   style="fill:#b2b2b2;fill-opacity:1;fill-rule:evenodd;stroke:#4e4e4e;stroke-width:0.42688301px;stroke-linecap:butt;stroke-linejoin:miter;stroke-opacity:1;opacity:1" /><ellipse
   ry="1.4192923"
   rx="1.4197509"
   cy="38.221878"
   cx="8.6213865"
   transform="matrix(0.86616641,-0.49975569,0.50024442,0.86588424,0,0)"
   id="path3146"
   style="opacity:0.96000001;fill:url(#radialGradient4728);fill-opacity:1;fill-rule:evenodd;stroke:none;stroke-width:2.83903718;stroke-linecap:round;stroke-linejoin:round;stroke-miterlimit:4;stroke-dasharray:none;stroke-opacity:1" /><path
   inkscape:connector-curvature="0"
   style="opacity:0.70792081;fill:#000000;fill-opacity:1;fill-rule:evenodd;stroke:none;stroke-width:3.99999976;stroke-linecap:round;stroke-linejoin:round;stroke-miterlimit:4;stroke-dasharray:none;stroke-opacity:1;filter:url(#filter4715)"
   d="m 53.032021,-2.5753905 -17.8125,30.8125055 c -2.347814,4.06383 -5.542933,7.16167 -9,8.90625 -3.45707,1.74458 -7.34864,2.14876 -10.53125,0.3125 -3.18256,-1.83623 -4.77875,-5.41426 -5,-9.28125 -0.06827,-1.19324 0.0074,-2.42906 0.1875,-3.6875 -0.562763,2.11357 -0.800347,4.21517 -0.6875,6.1875 0.22125,3.86699 1.81744,7.44502 5,9.28125 3.18261,1.83626 7.07418,1.43208 10.53125,-0.3125 3.457067,-1.74458 6.652186,-4.84242 9,-8.90625 l 18.1875,-31.46875546 c 0.2669,-0.45193404 0.34546,-0.99066504 0.21875,-1.50000004 z m -26.125,17.2812555 c -1.910083,-0.13135 -5.35613,1.85167 -7.5,5.5625 -1.065463,1.84422 -1.640002,3.76032 -1.78125,5.40625 0.297918,-0.95218 0.725187,-1.94376 1.28125,-2.90625 2.14387,-3.71083 5.589917,-5.69385 7.5,-5.5625 0.416649,0.0286 0.782976,0.12838 1.15625,0.34375 0.907897,0.52382 1.544773,1.67398 1.625,3.53125 0.01564,0.36208 0.0035,0.75652 -0.03125,1.15625 0.409149,-1.31651 0.577675,-2.58153 0.53125,-3.65625 -0.08023,-1.85727 -0.717103,-3.00743 -1.625,-3.53125 -0.373274,-0.21537 -0.739601,-0.3151 -1.15625,-0.34375 z"
   id="path4576"
   transform="matrix(0.42688355,0,0,0.42688355,1.2000006,34.521316)" /><path
   inkscape:connector-curvature="0"
   id="path4609"
   d="m 57.53125,79.25 -17.8125,30.8125 c -2.347814,4.06383 -5.542933,7.16167 -9,8.90625 -3.45707,1.74458 -7.34864,2.14876 -10.53125,0.3125 -3.18256,-1.83623 -4.77875,-5.41426 -5,-9.28125 -0.06827,-1.19324 0.0074,-2.42906 0.1875,-3.6875 -0.562763,2.11357 -0.800347,4.21517 -0.6875,6.1875 0.22125,3.86699 1.81744,7.44502 5,9.28125 3.18261,1.83626 7.07418,1.43208 10.53125,-0.3125 3.457067,-1.74458 6.652186,-4.84242 9,-8.90625 l 18.1875,-31.46875 c 0.2669,-0.451934 0.34546,-0.990665 0.21875,-1.5 z m -26.125,17.28125 c -1.910083,-0.131349 -5.35613,1.85167 -7.5,5.5625 -1.065463,1.84422 -1.640002,3.76032 -1.78125,5.40625 0.297918,-0.95218 0.725187,-1.94376 1.28125,-2.90625 2.14387,-3.71083 5.589917,-5.693849 7.5,-5.5625 0.416649,0.02865 0.782976,0.128381 1.15625,0.34375 0.907897,0.523826 1.544773,1.67398 1.625,3.53125 0.01564,0.36208 0.0035,0.75652 -0.03125,1.15625 0.409149,-1.31651 0.577675,-2.58153 0.53125,-3.65625 -0.08023,-1.85727 -0.717103,-3.007424 -1.625,-3.53125 -0.373274,-0.215369 -0.739601,-0.3151 -1.15625,-0.34375 z"
   style="opacity:0.70792081;fill:#000000;fill-opacity:1;fill-rule:evenodd;stroke:none;stroke-width:3.99999976;stroke-linecap:round;stroke-linejoin:round;stroke-miterlimit:4;stroke-dasharray:none;stroke-opacity:1;filter:url(#filter4711)"
   transform="matrix(-0.42688354,0,0,0.42688354,54.280845,-0.40857978)" /><path
   inkscape:connector-curvature="0"
   style="opacity:0.48514853;fill:url(#linearGradient1291);fill-opacity:1;fill-rule:evenodd;stroke:none;stroke-width:3.99999976;stroke-linecap:round;stroke-linejoin:round;stroke-miterlimit:4;stroke-dasharray:none;stroke-opacity:1;filter:url(#filter4691)"
   d="m 33.1875,106.4375 c -0.299488,0.99755 -0.732301,2.02698 -1.3125,3.03125 -1.320017,2.28481 -3.13191,3.98374 -4.78125,4.84375 -1.64934,0.86001 -2.93591,0.86754 -3.84375,0.34375 -0.9079,-0.52382 -1.57602,-1.67398 -1.65625,-3.53125 -0.381744,1.2629 -0.544959,2.45924 -0.5,3.5 0.08023,1.85727 0.74835,3.00743 1.65625,3.53125 0.90784,0.52379 2.19441,0.51626 3.84375,-0.34375 1.64934,-0.86001 3.461233,-2.55894 4.78125,-4.84375 1.312576,-2.27195 1.885229,-4.678 1.8125,-6.53125 z"
   id="path4626"
   sodipodi:nodetypes="cssscssssc"
   transform="matrix(0.6998928,0,0,0.64835614,-7.550722,-25.586047)" /><path
   inkscape:connector-curvature="0"
   transform="matrix(-0.6998928,0,0,0.64835614,61.175133,-25.586047)"
   sodipodi:nodetypes="cssscssssc"
   id="path4699"
   d="m 33.1875,106.4375 c -0.299488,0.99755 -0.732301,2.02698 -1.3125,3.03125 -1.320017,2.28481 -3.13191,3.98374 -4.78125,4.84375 -1.64934,0.86001 -2.93591,0.86754 -3.84375,0.34375 -0.9079,-0.52382 -1.57602,-1.67398 -1.65625,-3.53125 -0.381744,1.2629 -0.544959,2.45924 -0.5,3.5 0.08023,1.85727 0.74835,3.00743 1.65625,3.53125 0.90784,0.52379 2.19441,0.51626 3.84375,-0.34375 1.64934,-0.86001 3.461233,-2.55894 4.78125,-4.84375 1.312576,-2.27195 1.885229,-4.678 1.8125,-6.53125 z"
   style="opacity:0.48514853;fill:url(#linearGradient4641);fill-opacity:1;fill-rule:evenodd;stroke:none;stroke-width:3.99999976;stroke-linecap:round;stroke-linejoin:round;stroke-miterlimit:4;stroke-dasharray:none;stroke-opacity:1;filter:url(#filter4691)" /><path
   inkscape:connector-curvature="0"
   style="opacity:0.77722772;fill:none;fill-rule:evenodd;stroke:#ffffff;stroke-width:0.42688301px;stroke-linecap:butt;stroke-linejoin:miter;stroke-opacity:1"
   d="m 27.355525,27.886363 -1.531066,1.82469"
   id="path4730" /></svg>