<?xml version="1.0" encoding="UTF-8" standalone="no"?>
<svg
   xmlns:dc="http://purl.org/dc/elements/1.1/"
   xmlns:cc="http://creativecommons.org/ns#"
   xmlns:rdf="http://www.w3.org/1999/02/22-rdf-syntax-ns#"
   xmlns:svg="http://www.w3.org/2000/svg"
   xmlns="http://www.w3.org/2000/svg"
   xmlns:sodipodi="http://sodipodi.sourceforge.net/DTD/sodipodi-0.dtd"
   xmlns:inkscape="http://www.inkscape.org/namespaces/inkscape"
   viewBox="0 0 512 512"
   version="1.1"
   id="svg10"
   sodipodi:docname="donate.svg"
   inkscape:version="0.92.4 5da689c313, 2019-01-14">
  <metadata
     id="metadata14">
    <rdf:RDF>
      <cc:Work
         rdf:about="">
        <dc:format>image/svg+xml</dc:format>
        <dc:type
           rdf:resource="http://purl.org/dc/dcmitype/StillImage" />
        <dc:title />
      </cc:Work>
    </rdf:RDF>
  </metadata>
  <sodipodi:namedview
     pagecolor="#ffffff"
     bordercolor="#666666"
     borderopacity="1"
     objecttolerance="10"
     gridtolerance="10"
     guidetolerance="10"
     inkscape:pageopacity="0"
     inkscape:pageshadow="2"
     inkscape:window-width="640"
     inkscape:window-height="480"
     id="namedview12"
     showgrid="false"
     inkscape:zoom="0.87"
     inkscape:cx="345.76025"
     inkscape:cy="256"
     inkscape:current-layer="svg10" />
  <defs
     id="defs4">
    <style
       id="style2">.fa-secondary{opacity:.4}</style>
  </defs>
  <path
     d="M256 416c114.9 0 208-93.1 208-208S370.9 0 256 0 48 93.1 48 208s93.1 208 208 208zM233.8 97.4V80.6A16.56 16.56 0 0 1 250.4 64h11.1a16.56 16.56 0 0 1 16.6 16.6v17a78.84 78.84 0 0 1 43 15.4 11.21 11.21 0 0 1 1.2 17.1L306 145.6c-3.8 3.7-9.5 3.8-14 1a32.91 32.91 0 0 0-17.8-5.1h-38.9c-9 0-16.3 8.2-16.3 18.3 0 8.2 5 15.5 12.1 17.6l62.3 18.7c25.7 7.7 43.7 32.4 43.7 60.1 0 34-26.4 61.5-59.1 62.4v16.8a16.56 16.56 0 0 1-16.6 16.6h-11.1a16.56 16.56 0 0 1-16.6-16.6v-17a78.84 78.84 0 0 1-43-15.4 11.21 11.21 0 0 1-1.2-17.1l16.3-15.5c3.8-3.7 9.5-3.8 14-1a32.91 32.91 0 0 0 17.8 5.1h38.9c9 0 16.3-8.2 16.3-18.3 0-8.2-5-15.5-12.1-17.6l-62.3-18.7c-25.7-7.7-43.7-32.4-43.7-60.1.1-34 26.4-61.5 59.1-62.4z"
     class="fa-secondary"
     id="path6"
     style="fill:#63d05e;opacity:1;stroke:#7c6e6e;stroke-opacity:1;fill-opacity:0.86666667" />
  <path
     d="m 218.4,219.9 62.3,18.7 c 7.1,2.1 12.1,9.4 12.1,17.6 0,10.1 -7.3,18.3 -16.3,18.3 h -38.9 a 32.91,32.91 0 0 1 -17.8,-5.1 c -4.5,-2.8 -10.2,-2.7 -14,1 l -16.3,15.5 a 11.21,11.21 0 0 0 1.2,17.1 78.84,78.84 0 0 0 43,15.4 v 17 a 16.56,16.56 0 0 0 16.6,16.6 h 11.1 A 16.56,16.56 0 0 0 278,335.4 v -16.8 c 32.7,-0.9 59.1,-28.4 59.1,-62.4 0,-27.7 -18,-52.4 -43.7,-60.1 L 231.1,177.4 C 224,175.3 219,168 219,159.8 c 0,-10.1 7.3,-18.3 16.3,-18.3 h 38.9 a 32.91,32.91 0 0 1 17.8,5.1 c 4.5,2.8 10.2,2.7 14,-1 l 16.3,-15.5 a 11.21,11.21 0 0 0 -1.2,-17.1 78.84,78.84 0 0 0 -43,-15.4 v -17 A 16.56,16.56 0 0 0 261.5,64 h -11.1 a 16.56,16.56 0 0 0 -16.6,16.6 v 16.8 c -32.7,0.9 -59,28.4 -59.1,62.4 0,27.7 18,52.4 43.7,60.1 z M 480,352 h -32.5 a 242.37,242.37 0 0 1 -73,64 h 63.8 c 5.3,0 9.6,3.6 9.6,8 v 16 c 0,4.4 -4.3,8 -9.6,8 H 73.6 c -5.3,0 -9.6,-3.6 -9.6,-8 v -16 c 0,-4.4 4.3,-8 9.6,-8 h 63.8 a 243.57,243.57 0 0 1 -73,-64 H 32 A 32,32 0 0 0 0,384 v 96 a 32,32 0 0 0 32,32 h 448 a 32,32 0 0 0 32,-32 v -96 a 32,32 0 0 0 -32,-32 z"
     class="fa-primary"
     id="path8"
     style="fill:#2d681a;fill-opacity:1;stroke:#2dc017;stroke-opacity:0.64444447"
     inkscape:connector-curvature="0" />
</svg>
