<?xml version="1.0" encoding="UTF-8" standalone="no"?>
<!-- Created with Inkscape (http://www.inkscape.org/) -->

<svg
   xmlns:dc="http://purl.org/dc/elements/1.1/"
   xmlns:cc="http://creativecommons.org/ns#"
   xmlns:rdf="http://www.w3.org/1999/02/22-rdf-syntax-ns#"
   xmlns:svg="http://www.w3.org/2000/svg"
   xmlns="http://www.w3.org/2000/svg"
   xmlns:xlink="http://www.w3.org/1999/xlink"
   xmlns:sodipodi="http://sodipodi.sourceforge.net/DTD/sodipodi-0.dtd"
   xmlns:inkscape="http://www.inkscape.org/namespaces/inkscape"
   width="48"
   height="48"
   viewBox="0 0 48 48"
   version="1.1"
   id="svg8"
   inkscape:version="0.92.4 5da689c313, 2019-01-14"
   sodipodi:docname="edit_folder_name.svg">
  <title
     id="title7895">Antu icon Theme</title>
  <defs
     id="defs2">
    <linearGradient
       id="linearGradient10239"
       inkscape:collect="always">
      <stop
         id="stop10235"
         offset="0"
         style="stop-color:#348be7;stop-opacity:1" />
      <stop
         id="stop10237"
         offset="1"
         style="stop-color:#3997f1;stop-opacity:1" />
    </linearGradient>
    <linearGradient
       id="linearGradient10231"
       inkscape:collect="always">
      <stop
         id="stop10227"
         offset="0"
         style="stop-color:#3e9ff4;stop-opacity:1" />
      <stop
         id="stop10229"
         offset="1"
         style="stop-color:#50c2f9;stop-opacity:1" />
    </linearGradient>
    <linearGradient
       inkscape:collect="always"
       id="linearGradient4547">
      <stop
         style="stop-color:#c3f7f9;stop-opacity:1"
         offset="0"
         id="stop4543" />
      <stop
         style="stop-color:#e5fafb;stop-opacity:1"
         offset="1"
         id="stop4545" />
    </linearGradient>
    <linearGradient
       inkscape:collect="always"
       xlink:href="#linearGradient4547"
       id="linearGradient939"
       x1="11"
       y1="307.64999"
       x2="11"
       y2="287.64999"
       gradientUnits="userSpaceOnUse" />
    <linearGradient
       inkscape:collect="always"
       xlink:href="#linearGradient10231"
       id="linearGradient841"
       x1="24"
       y1="77.515907"
       x2="24"
       y2="38.998051"
       gradientUnits="userSpaceOnUse"
       gradientTransform="translate(-2e-7,-30.998052)" />
    <linearGradient
       inkscape:collect="always"
       xlink:href="#linearGradient10239"
       id="linearGradient850"
       x1="7.9999995"
       y1="49.998047"
       x2="10"
       y2="35.498047"
       gradientUnits="userSpaceOnUse"
       gradientTransform="translate(3.582215e-7,-30.998047)" />
  </defs>
  <sodipodi:namedview
     id="base"
     pagecolor="#ffffff"
     bordercolor="#666666"
     borderopacity="1.0"
     inkscape:pageopacity="0.0"
     inkscape:pageshadow="2"
     inkscape:zoom="22.4"
     inkscape:cx="26.923909"
     inkscape:cy="34.373964"
     inkscape:document-units="px"
     inkscape:current-layer="layer1"
     showgrid="true"
     units="px"
     inkscape:window-width="1920"
     inkscape:window-height="991"
     inkscape:window-x="0"
     inkscape:window-y="0"
     inkscape:window-maximized="1"
     objecttolerance="10"
     gridtolerance="10"
     guidetolerance="10">
    <inkscape:grid
       type="xygrid"
       id="grid7897"
       empspacing="4" />
  </sodipodi:namedview>
  <metadata
     id="metadata5">
    <rdf:RDF>
      <cc:Work
         rdf:about="">
        <dc:format>image/svg+xml</dc:format>
        <dc:type
           rdf:resource="http://purl.org/dc/dcmitype/StillImage" />
        <dc:title>Antu icon Theme</dc:title>
      </cc:Work>
    </rdf:RDF>
  </metadata>
  <g
     inkscape:label="Capa 1"
     inkscape:groupmode="layer"
     id="layer1"
     transform="translate(0,-266.64999)">
    <g
       transform="translate(-4.0000002,-21.998052)"
       id="g1286">
      <g
         id="g989"
         transform="matrix(1.4999999,0,0,1.4999999,-85.126671,-110.18802)"
         style="stroke:none">
        <path
           style="color:#000000;font-style:normal;font-variant:normal;font-weight:normal;font-stretch:normal;font-size:medium;line-height:normal;font-family:sans-serif;font-variant-ligatures:normal;font-variant-position:normal;font-variant-caps:normal;font-variant-numeric:normal;font-variant-alternates:normal;font-feature-settings:normal;text-indent:0;text-align:start;text-decoration:none;text-decoration-line:none;text-decoration-style:solid;text-decoration-color:#000000;letter-spacing:normal;word-spacing:normal;text-transform:none;writing-mode:lr-tb;direction:ltr;text-orientation:mixed;dominant-baseline:auto;baseline-shift:baseline;text-anchor:start;white-space:normal;shape-padding:0;clip-rule:nonzero;display:inline;overflow:visible;visibility:visible;opacity:1;isolation:auto;mix-blend-mode:normal;color-interpolation:sRGB;color-interpolation-filters:linearRGB;solid-color:#000000;solid-opacity:1;vector-effect:none;fill:url(#linearGradient850);fill-opacity:1;fill-rule:nonzero;stroke:none;stroke-width:1.99999988;stroke-linecap:round;stroke-linejoin:round;stroke-miterlimit:4;stroke-dasharray:none;stroke-dashoffset:0;stroke-opacity:1;color-rendering:auto;image-rendering:auto;shape-rendering:auto;text-rendering:auto;enable-background:accumulate"
           d="M 3 2 C 1.3552936 2 1.1842379e-15 3.355295 0 5 L 0 44 C 0 45.644705 1.3552936 47 3 47 L 45 47 C 46.644705 47 48 45.644705 48 44 L 48 11 C 48 9.355295 46.644705 8 45 8 L 23.001953 8 C 22.495972 8 22.2278 7.8332337 21.847656 7.4023438 C 21.467511 6.9714538 21.081728 6.2735056 20.652344 5.5097656 C 20.222958 4.7460416 19.742631 3.9122719 19.013672 3.2167969 C 18.284712 2.5213069 17.250001 2 16 2 L 3 2 z "
           transform="matrix(0.66666671,0,0,0.66666671,59.417785,265.89073)"
           id="path1233" />
        <g
           style="stroke:none;stroke-width:2;stroke-linecap:round;stroke-linejoin:round;stroke-miterlimit:4;stroke-dasharray:none;stroke-opacity:1"
           inkscape:label="Capa 1"
           id="layer1-0-6-8"
           transform="translate(100.17173,14.206221)">
          <g
             style="stroke:none;stroke-width:2;stroke-linecap:round;stroke-linejoin:round;stroke-miterlimit:4;stroke-dasharray:none;stroke-opacity:1"
             id="g6719-0-7"
             transform="translate(-40.753942,-34.63084)" />
        </g>
      </g>
      <path
         style="color:#000000;font-style:normal;font-variant:normal;font-weight:normal;font-stretch:normal;font-size:medium;line-height:normal;font-family:sans-serif;font-variant-ligatures:normal;font-variant-position:normal;font-variant-caps:normal;font-variant-numeric:normal;font-variant-alternates:normal;font-feature-settings:normal;text-indent:0;text-align:start;text-decoration:none;text-decoration-line:none;text-decoration-style:solid;text-decoration-color:#000000;letter-spacing:normal;word-spacing:normal;text-transform:none;writing-mode:lr-tb;direction:ltr;text-orientation:mixed;dominant-baseline:auto;baseline-shift:baseline;text-anchor:start;white-space:normal;shape-padding:0;clip-rule:nonzero;display:inline;overflow:visible;visibility:visible;opacity:1;isolation:auto;mix-blend-mode:normal;color-interpolation:sRGB;color-interpolation-filters:linearRGB;solid-color:#000000;solid-opacity:1;vector-effect:none;fill:url(#linearGradient841);fill-opacity:1;fill-rule:nonzero;stroke:none;stroke-width:1.99999988;stroke-linecap:round;stroke-linejoin:round;stroke-miterlimit:4;stroke-dasharray:none;stroke-dashoffset:0;stroke-opacity:1;color-rendering:auto;image-rendering:auto;shape-rendering:auto;text-rendering:auto;enable-background:accumulate"
         d="M 23 8 C 21.879278 8 20.958066 8.5812796 20.345703 9.2753906 C 19.73334 9.9695006 19.322143 10.773506 18.908203 11.509766 C 18.494264 12.246036 18.083008 12.908371 17.632812 13.337891 C 17.182617 13.76741 16.75 14 16 14 L 3 14 C 1.355291 14 0 15.3553 0 17 L 0 44 C 0 45.6447 1.355291 47 3 47 L 45 47 C 46.644709 47 48 45.6447 48 44 L 48 11 C 48 9.3553 46.644709 8 45 8 L 23 8 z "
         transform="translate(4.0000002,288.64804)"
         id="path1270" />
    </g>
    <path
       style="opacity:1;vector-effect:none;fill:url(#linearGradient939);fill-opacity:1;stroke:none;stroke-width:2;stroke-linecap:round;stroke-linejoin:round;stroke-miterlimit:4;stroke-dasharray:none;stroke-dashoffset:0;stroke-opacity:1"
       d="m 4,286.64999 v 2 h 8 v -2 z m 10,0 v 2 h 3 v -2 z m 5,0 v 2 h 4 v -2 z m 6,0 v 2 h 5 v -2 z m -21,4 v 2 h 4 v -2 z m 6,0 v 2 h 8 v -2 z m 10,0 v 2 h 9 v -2 z m -16,4 v 2 h 3 v -2 z m 5,0 v 2 h 4 v -2 z m 6,0 v 2 h 8 v -2 z m 10,0 v 2 h 5 v -2 z m -21,4 v 2 h 11 v -2 z m 13,0 v 2 h 4 v -2 z m 6,0 v 2 h 7 v -2 z m -19,4 v 2 h 4 v -2 z m 6,0 v 2 h 8 v -2 z m 10,0 v 2 h 9 v -2 z m -16,4 v 2 h 11 v -2 z m 13,0 v 2 h 4 v -2 z"
       id="rect1001"
       inkscape:connector-curvature="0"
       sodipodi:nodetypes="ccccccccccccccccccccccccccccccccccccccccccccccccccccccccccccccccccccccccccccccccccccccccccccccc" />
  </g>
</svg>
