<?xml version="1.0" encoding="UTF-8" standalone="no"?>
<!-- Created with Inkscape (http://www.inkscape.org/) -->

<svg
   xmlns:dc="http://purl.org/dc/elements/1.1/"
   xmlns:cc="http://creativecommons.org/ns#"
   xmlns:rdf="http://www.w3.org/1999/02/22-rdf-syntax-ns#"
   xmlns:svg="http://www.w3.org/2000/svg"
   xmlns="http://www.w3.org/2000/svg"
   xmlns:xlink="http://www.w3.org/1999/xlink"
   xmlns:sodipodi="http://sodipodi.sourceforge.net/DTD/sodipodi-0.dtd"
   xmlns:inkscape="http://www.inkscape.org/namespaces/inkscape"
   width="48"
   height="48"
   viewBox="0 0 48 48"
   version="1.1"
   id="svg8"
   inkscape:version="0.92.4 5da689c313, 2019-01-14"
   sodipodi:docname="edit_preset.svg">
  <title
     id="title7895">Antu icon Theme</title>
  <defs
     id="defs2">
    <linearGradient
       id="linearGradient850"
       inkscape:collect="always">
      <stop
         id="stop846"
         offset="0"
         style="stop-color:#233a39;stop-opacity:1" />
      <stop
         id="stop848"
         offset="1"
         style="stop-color:#434d4d;stop-opacity:1" />
    </linearGradient>
    <linearGradient
       id="linearGradient842"
       inkscape:collect="always">
      <stop
         id="stop838"
         offset="0"
         style="stop-color:#566066;stop-opacity:1" />
      <stop
         id="stop840"
         offset="1"
         style="stop-color:#6d7a81;stop-opacity:1" />
    </linearGradient>
    <style
       type="text/css"
       id="current-color-scheme">
      .ColorScheme-Text {
        color:#122036;
      }
      </style>
    <style
       id="current-color-scheme-1"
       type="text/css">
      .ColorScheme-Text {
        color:#122036;
      }
      </style>
    <linearGradient
       inkscape:collect="always"
       xlink:href="#linearGradient842"
       id="linearGradient839"
       x1="-31"
       y1="303.64999"
       x2="-31"
       y2="261.64999"
       gradientUnits="userSpaceOnUse"
       gradientTransform="translate(56,-258.64999)" />
    <linearGradient
       inkscape:collect="always"
       xlink:href="#linearGradient850"
       id="linearGradient848"
       x1="-32"
       y1="295.64999"
       x2="-32"
       y2="263.64999"
       gradientUnits="userSpaceOnUse"
       gradientTransform="translate(56,-258.64999)" />
  </defs>
  <sodipodi:namedview
     id="base"
     pagecolor="#ffffff"
     bordercolor="#666666"
     borderopacity="1.0"
     inkscape:pageopacity="0.0"
     inkscape:pageshadow="2"
     inkscape:zoom="16"
     inkscape:cx="15.481318"
     inkscape:cy="26.608434"
     inkscape:document-units="px"
     inkscape:current-layer="layer1"
     showgrid="true"
     units="px"
     inkscape:window-width="1920"
     inkscape:window-height="991"
     inkscape:window-x="0"
     inkscape:window-y="0"
     inkscape:window-maximized="1"
     objecttolerance="10"
     gridtolerance="10"
     guidetolerance="10"
     inkscape:snap-bbox="true"
     inkscape:bbox-paths="true"
     inkscape:bbox-nodes="true"
     inkscape:snap-bbox-edge-midpoints="true"
     inkscape:snap-bbox-midpoints="true"
     inkscape:object-paths="true"
     inkscape:snap-intersection-paths="true">
    <inkscape:grid
       type="xygrid"
       id="grid7897"
       empspacing="4" />
  </sodipodi:namedview>
  <metadata
     id="metadata5">
    <rdf:RDF>
      <cc:Work
         rdf:about="">
        <dc:format>image/svg+xml</dc:format>
        <dc:type
           rdf:resource="http://purl.org/dc/dcmitype/StillImage" />
        <dc:title>Antu icon Theme</dc:title>
      </cc:Work>
    </rdf:RDF>
  </metadata>
  <g
     inkscape:label="Capa 1"
     inkscape:groupmode="layer"
     id="layer1"
     transform="translate(0,-266.64999)">
    <g
       id="g19473"
       transform="translate(56,8)">
      <path
         style="opacity:1;vector-effect:none;fill:url(#linearGradient839);fill-opacity:1;stroke:none;stroke-width:2;stroke-linecap:round;stroke-linejoin:round;stroke-miterlimit:4;stroke-dasharray:none;stroke-dashoffset:0;stroke-opacity:1;paint-order:markers stroke fill"
         d="M 5 2 C 3.338 2 2 3.338 2 5 L 2 43 C 2 44.662 3.338 46 5 46 L 43 46 C 44.662 46 46 44.662 46 43 L 46 5 C 46 3.338 44.662 2 43 2 L 5 2 z "
         transform="translate(-56,258.64999)"
         id="rect18678-7" />
      <path
         style="opacity:1;vector-effect:none;fill:url(#linearGradient848);fill-opacity:1;stroke:none;stroke-width:2;stroke-linecap:round;stroke-linejoin:round;stroke-miterlimit:4;stroke-dasharray:none;stroke-dashoffset:0;stroke-opacity:1;paint-order:markers stroke fill"
         d="M 6 5 C 5.446002 5 5 5.446 5 6 L 5 36 C 5 36.554 5.446002 37 6 37 L 42 37 C 42.553998 37 43 36.554 43 36 L 43 6 C 43 5.446 42.553998 5 42 5 L 6 5 z "
         transform="translate(-56,258.64999)"
         id="rect18678" />
    </g>
    <path
       inkscape:connector-curvature="0"
       style="opacity:1;fill:#ececec;fill-opacity:1;stroke:none;stroke-width:8;stroke-linecap:round;stroke-linejoin:round;stroke-miterlimit:4;stroke-dasharray:none;stroke-dashoffset:0;stroke-opacity:1"
       d="m 9,274.64999 v 1 H 8 v 1 h 1 v 1 H 8 v 1 h 1 v 1 h 1 v -1 h 1 v 1 h 1 v -1 h 1 v -1 h -1 v -1 h 1 v -1 h -1 v -1 h -1 v 1 h -1 v -1 z m 1,2 h 1 v 1 h -1 z m -2,5 v 1 h 3 v -1 z m 4.546875,0 v 1 H 14 v -1 z m 2.453125,0 v 1 h 4 v -1 z m -7,2 v 1 h 1 v -1 z m 2,0 v 1 h 3 v -1 z m 4,0 v 1 h 4 v -1 z m -6,2 v 1 h 6 v -1 z m 7,0 v 1 h 1 v -1 z m 2,0 v 1 h 2 v -1 z m -9,2 v 1 h 3 v -1 z m 4,0 v 1 h 3 v -1 z m 4,0 v 1 h 3 v -1 z m -8,2 v 1 h 1 v -1 z m 2,0 v 1 h 7 v -1 z m 8,0 v 1 h 1 v -1 z m -9,3 v 1 H 8 v 1 h 1 v 1 H 8 v 1 h 1 v 1 h 1 v -1 h 1 v 1 h 1 v -1 h 1 v -1 h -1 v -1 h 1 v -1 h -1 v -1 h -1 v 1 h -1 v -1 z m 1,2 h 1 v 1 h -1 z m -2,5 v 1 h 3 v -1 z m 4.546875,0 v 1 H 14 v -1 z m 2.453125,0 v 1 h 4 v -1 z"
       id="rect1045-9-7" />
  </g>
</svg>
