<?xml version="1.0" encoding="UTF-8" standalone="no"?>
<!-- Created with Inkscape (http://www.inkscape.org/) -->

<svg
   xmlns:dc="http://purl.org/dc/elements/1.1/"
   xmlns:cc="http://creativecommons.org/ns#"
   xmlns:rdf="http://www.w3.org/1999/02/22-rdf-syntax-ns#"
   xmlns:svg="http://www.w3.org/2000/svg"
   xmlns="http://www.w3.org/2000/svg"
   xmlns:xlink="http://www.w3.org/1999/xlink"
   xmlns:sodipodi="http://sodipodi.sourceforge.net/DTD/sodipodi-0.dtd"
   xmlns:inkscape="http://www.inkscape.org/namespaces/inkscape"
   width="48"
   height="48"
   viewBox="0 0 48 48"
   version="1.1"
   id="svg8"
   inkscape:version="0.92.4 5da689c313, 2019-01-14"
   sodipodi:docname="legal.svg">
  <title
     id="title7895">Antu icon Theme</title>
  <defs
     id="defs2">
    <linearGradient
       inkscape:collect="always"
       xlink:href="#linearGradient2126"
       id="linearGradient2237"
       gradientUnits="userSpaceOnUse"
       gradientTransform="matrix(3.8654256,0,0,3.8654256,-128.65421,-741.65737)"
       x1="8.4477682"
       y1="295.60147"
       x2="8.4477682"
       y2="288.98691" />
    <style
       type="text/css"
       id="current-color-scheme">
      .ColorScheme-Text {
        color:#122036;
      }
      </style>
    <style
       type="text/css"
       id="current-color-scheme-7">
      .ColorScheme-Text {
        color:#122036;
      }
      </style>
    <style
       type="text/css"
       id="current-color-scheme-5">
      .ColorScheme-Text {
        color:#122036;
      }
      </style>
    <linearGradient
       inkscape:collect="always"
       id="linearGradient4582-3">
      <stop
         style="stop-color:#c8c8c8;stop-opacity:1"
         offset="0"
         id="stop4578-5" />
      <stop
         style="stop-color:#f2f2f2;stop-opacity:1"
         offset="1"
         id="stop4580-6" />
    </linearGradient>
    <linearGradient
       id="linearGradient2126"
       inkscape:collect="always">
      <stop
         id="stop2122"
         offset="0"
         style="stop-color:#475057;stop-opacity:1;" />
      <stop
         id="stop2124"
         offset="1"
         style="stop-color:#5e6a73;stop-opacity:1" />
    </linearGradient>
    <style
       type="text/css"
       id="current-color-scheme-2">
      .ColorScheme-Text {
        color:#122036;
      }
      </style>
    <style
       type="text/css"
       id="current-color-scheme-7-7">
      .ColorScheme-Text {
        color:#122036;
      }
      </style>
    <style
       type="text/css"
       id="current-color-scheme-5-0">
      .ColorScheme-Text {
        color:#122036;
      }
      </style>
    <style
       id="current-color-scheme-9"
       type="text/css">
      .ColorScheme-Text {
        color:#122036;
      }
      </style>
    <style
       id="current-color-scheme-1"
       type="text/css">
      .ColorScheme-Text {
        color:#122036;
      }
      </style>
    <style
       type="text/css"
       id="current-color-scheme-10">
      .ColorScheme-Text {
        color:#122036;
      }
      </style>
    <style
       id="current-color-scheme-6"
       type="text/css">
      .ColorScheme-Text {
        color:#122036;
      }
      </style>
    <style
       id="current-color-scheme-7-1"
       type="text/css">
      .ColorScheme-Text {
        color:#122036;
      }
      </style>
    <style
       id="current-color-scheme-5-2"
       type="text/css">
      .ColorScheme-Text {
        color:#122036;
      }
      </style>
    <style
       type="text/css"
       id="current-color-scheme-3">
      .ColorScheme-Text {
        color:#122036;
      }
      </style>
    <style
       type="text/css"
       id="current-color-scheme-7-75">
      .ColorScheme-Text {
        color:#122036;
      }
      </style>
    <style
       type="text/css"
       id="current-color-scheme-5-9">
      .ColorScheme-Text {
        color:#122036;
      }
      </style>
    <style
       id="current-color-scheme-9-2"
       type="text/css">
      .ColorScheme-Text {
        color:#122036;
      }
      </style>
    <style
       id="current-color-scheme-1-2"
       type="text/css">
      .ColorScheme-Text {
        color:#122036;
      }
      </style>
    <style
       type="text/css"
       id="current-color-scheme-10-8">
      .ColorScheme-Text {
        color:#122036;
      }
      </style>
    <style
       id="current-color-scheme-6-9"
       type="text/css">
      .ColorScheme-Text {
        color:#122036;
      }
      </style>
    <style
       id="current-color-scheme-7-1-7"
       type="text/css">
      .ColorScheme-Text {
        color:#122036;
      }
      </style>
    <style
       id="current-color-scheme-5-2-3"
       type="text/css">
      .ColorScheme-Text {
        color:#122036;
      }
      </style>
    <style
       id="current-color-scheme-106"
       type="text/css">
      .ColorScheme-Text {
        color:#122036;
      }
      </style>
    <style
       id="current-color-scheme-7-3"
       type="text/css">
      .ColorScheme-Text {
        color:#122036;
      }
      </style>
    <style
       id="current-color-scheme-5-20"
       type="text/css">
      .ColorScheme-Text {
        color:#122036;
      }
      </style>
    <style
       type="text/css"
       id="current-color-scheme-9-6">
      .ColorScheme-Text {
        color:#122036;
      }
      </style>
    <style
       type="text/css"
       id="current-color-scheme-1-1">
      .ColorScheme-Text {
        color:#122036;
      }
      </style>
    <style
       id="current-color-scheme-10-5"
       type="text/css">
      .ColorScheme-Text {
        color:#122036;
      }
      </style>
    <style
       type="text/css"
       id="current-color-scheme-6-5">
      .ColorScheme-Text {
        color:#122036;
      }
      </style>
    <style
       type="text/css"
       id="current-color-scheme-7-1-4">
      .ColorScheme-Text {
        color:#122036;
      }
      </style>
    <style
       type="text/css"
       id="current-color-scheme-5-2-7">
      .ColorScheme-Text {
        color:#122036;
      }
      </style>
    <linearGradient
       inkscape:collect="always"
       xlink:href="#linearGradient4582-3"
       id="linearGradient1197"
       x1="24"
       y1="35.000004"
       x2="24"
       y2="13.000006"
       gradientUnits="userSpaceOnUse"
       gradientTransform="translate(0,-1.118091e-5)" />
    <linearGradient
       inkscape:collect="always"
       xlink:href="#linearGradient2126"
       id="linearGradient870"
       x1="16.000004"
       y1="312.96817"
       x2="16.000004"
       y2="284.33182"
       gradientUnits="userSpaceOnUse"
       gradientTransform="matrix(1.4666667,0,0,1.4666667,0.533333,-414.01999)" />
  </defs>
  <sodipodi:namedview
     id="base"
     pagecolor="#ffffff"
     bordercolor="#666666"
     borderopacity="1.0"
     inkscape:pageopacity="0.0"
     inkscape:pageshadow="2"
     inkscape:zoom="15.999999"
     inkscape:cx="29.204212"
     inkscape:cy="25.988678"
     inkscape:document-units="px"
     inkscape:current-layer="layer1-6"
     showgrid="false"
     units="px"
     inkscape:window-width="1920"
     inkscape:window-height="991"
     inkscape:window-x="0"
     inkscape:window-y="0"
     inkscape:window-maximized="1"
     objecttolerance="10"
     gridtolerance="10"
     guidetolerance="10"
     inkscape:snap-bbox="true"
     inkscape:bbox-nodes="true"
     inkscape:bbox-paths="true"
     inkscape:snap-bbox-edge-midpoints="true"
     inkscape:snap-bbox-midpoints="true"
     inkscape:object-paths="true"
     inkscape:snap-intersection-paths="true"
     inkscape:object-nodes="true"
     inkscape:snap-smooth-nodes="false"
     inkscape:snap-midpoints="false"
     inkscape:showpageshadow="false">
    <inkscape:grid
       type="xygrid"
       id="grid7897"
       empspacing="4" />
  </sodipodi:namedview>
  <metadata
     id="metadata5">
    <rdf:RDF>
      <cc:Work
         rdf:about="">
        <dc:format>image/svg+xml</dc:format>
        <dc:type
           rdf:resource="http://purl.org/dc/dcmitype/StillImage" />
        <dc:title>Antu icon Theme</dc:title>
      </cc:Work>
    </rdf:RDF>
  </metadata>
  <g
     inkscape:label="Capa 1"
     inkscape:groupmode="layer"
     id="layer1"
     transform="translate(0,-266.64999)">
    <g
       id="g1535"
       transform="translate(35,-15.000005)">
      <g
         id="g911"
         transform="translate(-35,15)">
        <g
           id="g5422"
           transform="translate(-24,-4)">
          <g
             transform="matrix(1.4666667,0,0,1.4666667,24.533333,-143.37)"
             id="layer1-6"
             inkscape:label="Capa 1">
            <path
               style="fill:url(#linearGradient870);fill-opacity:1;stroke-width:1"
               d="M 6 2 C 3.7839999 2 2 3.7839999 2 6 L 2 42 C 2 44.216 3.7839999 46 6 46 L 42 46 C 44.216 46 46 44.216 46 42 L 46 6 C 46 3.7839999 44.216 2 42 2 L 6 2 z "
               transform="matrix(0.68181817,0,0,0.68181817,-0.36363613,282.28635)"
               id="rect938" />
            <g
               transform="matrix(0.68181817,0,0,0.68181817,37.136363,97.752273)"
               id="layer1-94"
               inkscape:label="Capa 1">
              <g
                 inkscape:label="Capa 1"
                 id="layer1-9"
                 transform="matrix(1.1666667,0,0,1.125,5.3333328,-46.956249)">
                <g
                   id="g1528"
                   transform="translate(18,-2)" />
              </g>
            </g>
            <path
               style="opacity:0.97000002;fill:url(#linearGradient1197);fill-opacity:1;stroke-width:1"
               d="M 7 5 C 5.8919999 5 5 5.891992 5 7 C 5 8.1079934 5.8919999 9 7 9 C 8.1080001 9 9 8.1079934 9 7 C 9 5.891992 8.1080001 5 7 5 z M 41 5 C 39.891999 5 39 5.891992 39 7 C 39 8.1079934 39.891999 9 41 9 C 42.107999 9 43 8.1079934 43 7 C 43 5.891992 42.107999 5 41 5 z M 24 12 C 20.122 12 17 15.122 17 19 L 17 21 C 15.89199 21 15 21.89199 15 23 L 15 34 C 15 35.10801 15.89199 36 17 36 L 31 36 C 32.10801 36 33 35.10801 33 34 L 33 23 C 33 21.89199 32.10801 21 31 21 L 31 19 C 31 15.122 27.878 12 24 12 z M 24 15 C 26.216 15 28 16.784 28 19 L 28 21 L 20 21 L 20 19 C 20 16.784 21.784 15 24 15 z M 7 22 C 5.8919999 22 5 22.891992 5 24 C 5 25.107993 5.8919999 26 7 26 C 8.1080001 26 9 25.107993 9 24 C 9 22.891992 8.1080001 22 7 22 z M 41 22 C 39.891999 22 39 22.891992 39 24 C 39 25.107993 39.891999 26 41 26 C 42.107999 26 43 25.107993 43 24 C 43 22.891992 42.107999 22 41 22 z M 24 25 C 25.107996 25 26 25.892004 26 27 C 26 27.741067 25.595797 28.37905 25 28.724609 L 25 32 L 23 32 L 23 28.724609 C 22.404203 28.37905 22 27.741067 22 27 C 22 25.892004 22.892004 25 24 25 z M 7 39 C 5.8919999 39 5 39.891992 5 41 C 5 42.107993 5.8919999 43 7 43 C 8.1080001 43 9 42.107993 9 41 C 9 39.891992 8.1080001 39 7 39 z M 41 39 C 39.891999 39 39 39.891992 39 41 C 39 42.107993 39.891999 43 41 43 C 42.107999 43 43 42.107993 43 41 C 43 39.891992 42.107999 39 41 39 z "
               transform="matrix(0.68181817,0,0,0.68181817,-0.36363613,282.28635)"
               id="rect1182" />
          </g>
        </g>
      </g>
    </g>
  </g>
</svg>
