<?xml version="1.0" encoding="UTF-8" standalone="no"?>
<!-- Created with Inkscape (http://www.inkscape.org/) -->

<svg
   xmlns:dc="http://purl.org/dc/elements/1.1/"
   xmlns:cc="http://creativecommons.org/ns#"
   xmlns:rdf="http://www.w3.org/1999/02/22-rdf-syntax-ns#"
   xmlns:svg="http://www.w3.org/2000/svg"
   xmlns="http://www.w3.org/2000/svg"
   xmlns:xlink="http://www.w3.org/1999/xlink"
   xmlns:sodipodi="http://sodipodi.sourceforge.net/DTD/sodipodi-0.dtd"
   xmlns:inkscape="http://www.inkscape.org/namespaces/inkscape"
   width="1200"
   height="1200"
   viewBox="0 0 317.49999 317.50001"
   version="1.1"
   id="svg8"
   inkscape:version="0.92.4 5da689c313, 2019-01-14"
   sodipodi:docname="mystiq.svg">
  <defs
     id="defs2">
    <linearGradient
       inkscape:collect="always"
       id="linearGradient977">
      <stop
         style="stop-color:#636d8f;stop-opacity:1;"
         offset="0"
         id="stop973" />
      <stop
         style="stop-color:#636d8f;stop-opacity:0;"
         offset="1"
         id="stop975" />
    </linearGradient>
    <linearGradient
       id="linearGradient1105"
       inkscape:collect="always">
      <stop
         id="stop1101"
         offset="0"
         style="stop-color:#019ac9;stop-opacity:1" />
      <stop
         id="stop1103"
         offset="1"
         style="stop-color:#91e5fd;stop-opacity:1" />
    </linearGradient>
    <clipPath
       clipPathUnits="userSpaceOnUse"
       id="clipPath1774">
      <path
         id="path1776"
         d="M 576.85567,1.9102362e-4 A 576.85532,580.7395 0 0 0 2.5984252e-4,580.7404 576.85532,580.7395 0 0 0 576.85567,1161.4786 576.85532,580.7395 0 0 0 919.00807,1047.4709 l 149.03903,132.1347 a 79.092908,79.62547 0 1 0 104.5372,-119.5098 L 1032.4261,935.8381 A 576.85532,580.7395 0 0 0 1153.7111,580.7404 576.85532,580.7395 0 0 0 576.85567,1.9102362e-4 Z m 0,71.91010097638 A 505.4261,508.82934 0 0 1 1082.2814,580.7384 505.4261,508.82934 0 0 1 576.85567,1089.5686 505.4261,508.82934 0 0 1 71.429861,580.7384 505.4261,508.82934 0 0 1 576.85567,71.910292 Z"
         style="opacity:1;fill-opacity:1;stroke:none;stroke-width:25.65397453;stroke-linecap:round;stroke-linejoin:round;stroke-miterlimit:4;stroke-dasharray:none;stroke-opacity:1;paint-order:stroke markers fill"
         inkscape:connector-curvature="0" />
    </clipPath>
    <linearGradient
       inkscape:collect="always"
       xlink:href="#linearGradient1105"
       id="linearGradient4300"
       gradientUnits="userSpaceOnUse"
       gradientTransform="matrix(2.6770173,0,0,2.6770171,-93.052904,-5.1936417)"
       x1="37.623547"
       y1="20.78064"
       x2="74.762482"
       y2="77.428459" />
    <linearGradient
       inkscape:collect="always"
       xlink:href="#linearGradient977"
       id="linearGradient979"
       x1="254"
       y1="127.66665"
       x2="825.5"
       y2="127.66665"
       gradientUnits="userSpaceOnUse"
       gradientTransform="translate(0,8.3120828)" />
  </defs>
  <sodipodi:namedview
     id="base"
     pagecolor="#ffffff"
     bordercolor="#666666"
     borderopacity="1.0"
     inkscape:pageopacity="0.0"
     inkscape:pageshadow="2"
     inkscape:zoom="0.48"
     inkscape:cx="591.78879"
     inkscape:cy="655.71044"
     inkscape:document-units="px"
     inkscape:current-layer="layer1"
     showgrid="true"
     inkscape:window-width="1920"
     inkscape:window-height="1017"
     inkscape:window-x="-8"
     inkscape:window-y="-8"
     inkscape:window-maximized="1"
     units="px"
     showguides="false">
    <inkscape:grid
       type="xygrid"
       id="grid969" />
  </sodipodi:namedview>
  <metadata
     id="metadata5">
    <rdf:RDF>
      <cc:Work
         rdf:about="">
        <dc:format>image/svg+xml</dc:format>
        <dc:type
           rdf:resource="http://purl.org/dc/dcmitype/StillImage" />
        <dc:title />
      </cc:Work>
    </rdf:RDF>
  </metadata>
  <g
     inkscape:label="Capa 1"
     inkscape:groupmode="layer"
     id="layer1"
     transform="translate(0,20.500017)">
    <path
       style="opacity:1;fill:url(#linearGradient979);fill-opacity:1;stroke:none;stroke-width:0.70829493;stroke-linecap:round;stroke-linejoin:round;stroke-miterlimit:4;stroke-dasharray:none;stroke-opacity:1;paint-order:stroke markers fill"
       d="m 306.11282,72.810536 -52.78754,34.430374 c -5.70798,4.30604 -10.30374,21.17371 -10.30374,27.79894 0.27074,5.55054 3.52971,27.67483 10.30374,32.78946 l 52.7861,28.73175 c 6.17207,3.47011 10.21043,1.78899 10.30344,-4.18605 V 76.996632 c 0.0556,-6.063542 -5.69182,-7.307996 -10.302,-4.186096 z"
       id="rect1157"
       inkscape:connector-curvature="0"
       sodipodi:nodetypes="cccccccc" />
    <path
       style="opacity:1;fill:#5d6686;fill-opacity:1;stroke:none;stroke-width:5.48347807;stroke-linecap:round;stroke-linejoin:round;stroke-miterlimit:4;stroke-dasharray:none;stroke-opacity:1;paint-order:stroke markers fill"
       d="m 33.37888,41.420059 c -10.661512,0 -20.042122,5.908043 -25.7115782,14.970985 -2.2564946,5.824583 -3.5372825,11.849412 -3.5372825,17.614661 v 5.576429 c 0,-14.25914 7.7986387,-22.755426 18.9620147,-22.686146 3.72112,0.024 7.81494,0.997822 12.11985,3.028232 l 163.099936,76.92563 23.04611,-10.86886 c 17.21958,-8.12186 31.08186,-29.965334 31.08186,-48.977498 V 71.288725 C 250.15406,54.33397 237.1723,41.420059 221.40205,41.420059 Z M 10.734257,212.18764 c 0.328665,0.30843 0.667374,0.60132 1.016808,0.88021 -0.34945,-0.27888 -0.688143,-0.57176 -1.016808,-0.88021 z m 5.857217,3.56917 c 0.399306,0.13895 0.804955,0.26868 1.218811,0.38168 -0.413262,-0.11106 -0.820068,-0.24085 -1.218811,-0.38168 z m 9.723873,0.80001 c -0.734554,0.10479 -1.457417,0.17715 -2.167771,0.21587 0.710339,-0.0371 1.433244,-0.10781 2.167771,-0.21587 z"
       id="path1045"
       inkscape:connector-curvature="0" />
    <path
       inkscape:connector-curvature="0"
       id="path4298"
       d="m 33.378908,41.419922 c -0.617367,0 -1.228808,0.02454 -1.83712,0.06407 0.608032,-0.03897 1.220043,-0.06407 1.83712,-0.06407 z m 189.576732,0.04417 c 0.16569,0.0089 0.32877,0.02532 0.49385,0.03732 -0.165,-0.01138 -0.32837,-0.02825 -0.49385,-0.03732 z m -191.949242,0.06562 c -0.425092,0.03537 -0.848449,0.07797 -1.268547,0.130995 0.420278,-0.05398 0.843255,-0.09612 1.268547,-0.130995 z m 193.468022,0.05947 c 0.21206,0.02291 0.42173,0.05395 0.6325,0.08208 -0.21085,-0.02745 -0.42021,-0.05878 -0.6325,-0.08208 z M 29.108398,41.750666 c -0.40714,0.06193 -0.811333,0.130995 -1.213229,0.210291 0.401648,-0.07946 0.806311,-0.148604 1.213229,-0.210291 z m 196.868632,0.0428 c 0.22349,0.03628 0.44482,0.07952 0.66658,0.120099 -0.22187,-0.04138 -0.44312,-0.08449 -0.66658,-0.120099 z M 27.340421,42.071492 c -0.502045,0.108839 -0.9996,0.232719 -1.492681,0.36798 0.493136,-0.135056 0.990555,-0.258911 1.492681,-0.36798 z m 200.123609,0.0054 c 0.2194,0.0477 0.43783,0.09923 0.65601,0.152157 -0.21821,-0.05273 -0.43658,-0.104219 -0.65601,-0.152157 z m 1.49152,0.367983 c 0.19973,0.05492 0.39879,0.112084 0.59754,0.171534 -0.19868,-0.05928 -0.39775,-0.116293 -0.59754,-0.171534 z m -203.331912,0.05257 c -0.58242,0.164867 -1.157711,0.347215 -1.726424,0.547814 0.568632,-0.200817 1.144083,-0.38278 1.726424,-0.547814 z m 204.782652,0.390101 c 0.19431,0.06529 0.38896,0.128691 0.58129,0.197829 -0.19265,-0.06945 -0.38681,-0.132714 -0.58129,-0.197829 z M 23.595601,43.160234 c -0.466375,0.170368 -0.928414,0.35122 -1.384775,0.545046 0.456094,-0.193914 0.918665,-0.374569 1.384775,-0.545046 z m 208.224879,0.239333 c 0.18768,0.0744 0.37639,0.146487 0.56277,0.22413 -0.18634,-0.07822 -0.37489,-0.150364 -0.56277,-0.22413 z M 21.80552,43.8838 c -0.430649,0.190685 -0.855886,0.392045 -1.276877,0.603158 0.420909,-0.211298 0.846312,-0.412306 1.276877,-0.603158 z m 211.4437,0.121472 c 0.16735,0.07673 0.33641,0.148932 0.50211,0.228243 -0.16575,-0.07975 -0.33463,-0.152061 -0.50211,-0.228243 z M 20.181383,44.662619 c -0.479048,0.248171 -0.952409,0.507583 -1.417905,0.781616 0.465356,-0.274247 0.938963,-0.533244 1.417905,-0.781616 z m 214.465257,0.02343 c 0.1462,0.07681 0.29473,0.146979 0.43968,0.225493 -0.14495,-0.07913 -0.29347,-0.149407 -0.43968,-0.225493 z M 18.615402,45.530056 c -1.075161,0.6411 -2.111518,1.351334 -3.107069,2.123504 0.995114,-0.77253 2.032357,-1.482006 3.107069,-2.123504 z m 217.742468,0.109208 c 0.12343,0.07655 0.24638,0.158797 0.37079,0.236563 -0.12311,-0.07835 -0.24569,-0.16062 -0.37079,-0.236563 z m 1.27976,0.821729 c 0.13849,0.09462 0.27501,0.196291 0.41353,0.293276 -0.13759,-0.09696 -0.27412,-0.19868 -0.41353,-0.293276 z m 1.21161,0.866 c 0.16245,0.121134 0.32157,0.247402 0.48138,0.372128 -0.15986,-0.124468 -0.31887,-0.250631 -0.48138,-0.372128 z M 15.430837,47.715808 c -0.45901,0.358395 -0.908232,0.730278 -1.348771,1.115027 0.440105,-0.38463 0.890296,-0.756701 1.348771,-1.115027 z m 224.601113,0.542299 c 0.16999,0.139994 0.33678,0.284867 0.50377,0.42885 -0.16687,-0.143998 -0.33366,-0.288594 -0.50377,-0.42885 z M 13.90774,48.984393 c -0.44118,0.390893 -0.873396,0.793975 -1.294862,1.210451 0.42145,-0.416749 0.853696,-0.819286 1.294862,-1.210451 z m 227.25163,0.253149 c 0.17481,0.158756 0.34855,0.31994 0.52049,0.482816 -0.172,-0.162934 -0.3455,-0.324013 -0.52049,-0.482816 z m -228.597676,1.00713 c -1.371441,1.361313 -2.6333195,2.855751 -3.7738611,4.465543 1.1401042,-1.609409 2.4033091,-3.104209 3.7738611,-4.465543 z m 229.697736,0.03742 c 0.16235,0.161961 0.32334,0.32555 0.48295,0.4911 -0.15973,-0.165714 -0.32055,-0.329222 -0.48295,-0.4911 z m 1.09126,1.141279 c 0.1431,0.156881 0.28584,0.313334 0.42634,0.473124 -0.1387,-0.159825 -0.28332,-0.316422 -0.42634,-0.473124 z m 0.98243,1.127463 c 0.15063,0.180693 0.30359,0.35945 0.45074,0.543681 -0.14723,-0.184173 -0.29994,-0.362988 -0.45074,-0.543681 z m 0.96287,1.207698 c 0.1388,0.184448 0.28353,0.366982 0.42051,0.554746 -0.13551,-0.187932 -0.28012,-0.370084 -0.42051,-0.554746 z M 8.7518888,54.760033 C 8.3808933,55.285625 8.0239526,55.823564 7.6797693,56.37306 8.0239982,55.82354 8.3808933,55.285707 8.7518888,54.760033 Z M 246.36939,55.246998 c 0.0714,0.107777 0.1506,0.212287 0.22283,0.320945 -0.0704,-0.108582 -0.1496,-0.213091 -0.22283,-0.320945 z M 7.6659152,56.393796 C 4.0874312,62.115711 1.984375,69.091396 1.984375,76.642419 V 199.92005 c 0,19.51284 14.001273,35.22187 31.394533,35.22187 H 221.40208 c 17.3932,0 31.39595,-15.70904 31.39595,-35.22187 V 76.642298 c 0,-1.820776 -0.12167,-3.608861 -0.35824,-5.353707 v 5.714737 c 0,19.012189 -13.86228,40.855632 -31.08186,48.977532 l -23.0461,10.86885 -163.099946,76.9258 c -3.177783,1.49899 -6.240325,2.41857 -9.123426,2.80843 -0.0028,4e-4 -0.0054,7.8e-4 -0.0083,7.8e-4 -0.112859,0.0157 -0.22512,0.0271 -0.337542,0.0403 -0.336394,0.0396 -0.6703,0.0715 -1.001555,0.0969 -0.0109,7.4e-4 -0.02138,7.6e-4 -0.0319,0.002 -0.111444,0.007 -0.223516,0.0182 -0.334786,0.026 -0.0028,1.9e-4 -0.0054,-2.1e-4 -0.0083,0 -2.33104,0.14676 -4.529618,-0.0621 -6.55583,-0.61734 -0.413814,-0.11155 -0.819513,-0.24086 -1.218807,-0.38178 -1.772145,-0.62512 -3.390639,-1.53383 -4.840433,-2.68934 -0.0042,-0.002 -0.0083,-0.007 -0.0123,-0.0106 -0.343035,-0.27393 -0.675779,-0.56169 -0.998803,-0.86472 -0.0014,-7.8e-4 -0.0042,-0.002 -0.0055,-0.004 C 6.5976976,208.30699 4.1299756,202.12439 4.1299756,194.11365 V 79.581724 74.005323 c 0,-5.764298 1.2801538,-11.788236 3.5359403,-17.611898 z M 24.741053,216.72655 c 0.320417,-0.0236 0.643134,-0.0563 0.968372,-0.0943 -0.325238,0.0379 -0.647929,0.0697 -0.968372,0.0943 z M 252.43979,71.28871 c -0.021,-0.163562 -0.0507,-0.324062 -0.0742,-0.486944 0.0236,0.162746 0.0525,0.323328 0.0742,0.486944 z m -5.02747,-14.425927 c 0.11435,0.191411 0.22375,0.388349 0.3362,0.582378 -0.1107,-0.194081 -0.22055,-0.391048 -0.3362,-0.582378 z m 0.78453,1.370913 c 0.11926,0.221399 0.23481,0.447684 0.35133,0.672344 -0.11491,-0.224604 -0.23064,-0.450945 -0.35133,-0.672344 z m 0.71381,1.379237 c 0.11387,0.234774 0.22547,0.473051 0.33635,0.71106 -0.109,-0.237985 -0.22098,-0.476365 -0.33635,-0.71106 z m 0.68745,1.483007 c 0.0941,0.221399 0.18953,0.445483 0.28245,0.669553 -0.0902,-0.22407 -0.18558,-0.448072 -0.28245,-0.669553 z m 0.60751,1.481607 c 0.0878,0.233436 0.1781,0.468099 0.26422,0.704141 -0.0836,-0.236123 -0.17427,-0.470627 -0.26422,-0.704141 z m 0.55045,1.52448 c 0.0791,0.240662 0.16128,0.481794 0.238,0.724909 -0.0745,-0.243084 -0.15665,-0.484219 -0.238,-0.724909 z m 0.48423,1.541103 c 0.0723,0.25592 0.14932,0.511947 0.21866,0.770544 -0.0674,-0.258597 -0.14412,-0.514465 -0.21866,-0.770544 z m 0.4221,1.578442 c 0.0633,0.265558 0.13057,0.530262 0.19199,0.798205 -0.058,-0.268077 -0.12568,-0.532647 -0.19199,-0.798205 z m 0.36091,1.626853 c 0.0517,0.265824 0.11011,0.530057 0.15899,0.79822 -0.0465,-0.268193 -0.1047,-0.532284 -0.15899,-0.79822 z"
       style="opacity:1;fill:#434a61;fill-opacity:1;stroke:none;stroke-width:5.58318472;stroke-linecap:round;stroke-linejoin:round;stroke-miterlimit:4;stroke-dasharray:none;stroke-opacity:1;paint-order:stroke markers fill" />
    <path
       style="opacity:1;fill:#667193;fill-opacity:0.91417907;stroke:none;stroke-width:5.51739979;stroke-linecap:round;stroke-linejoin:round;stroke-miterlimit:4;stroke-dasharray:none;stroke-opacity:1;paint-order:stroke markers fill"
       d="M 22.579515,56.00088 C 11.416143,55.930545 3.6174689,64.532458 3.6174689,78.968564 V 194.92587 c 0,19.24786 13.8623391,28.12416 31.0819391,19.90235 L 79.099251,193.62611 V 80.268285 L 34.699408,59.066683 C 30.394492,57.011079 26.300707,56.024256 22.579515,56.00088 Z"
       id="path1147"
       inkscape:connector-curvature="0" />
  </g>
</svg>
