<?xml version="1.0" encoding="UTF-8" standalone="no"?>
<!-- Generator: Adobe Illustrator 19.0.0, SVG Export Plug-In . SVG Version: 6.00 Build 0)  -->

<svg
   xmlns:dc="http://purl.org/dc/elements/1.1/"
   xmlns:cc="http://creativecommons.org/ns#"
   xmlns:rdf="http://www.w3.org/1999/02/22-rdf-syntax-ns#"
   xmlns:svg="http://www.w3.org/2000/svg"
   xmlns="http://www.w3.org/2000/svg"
   xmlns:sodipodi="http://sodipodi.sourceforge.net/DTD/sodipodi-0.dtd"
   xmlns:inkscape="http://www.inkscape.org/namespaces/inkscape"
   version="1.1"
   id="Capa_1"
   x="0px"
   y="0px"
   viewBox="0 0 58 58"
   style="enable-background:new 0 0 58 58;"
   xml:space="preserve"
   sodipodi:docname="open_folder.svg"
   inkscape:version="0.92.4 5da689c313, 2019-01-14"><metadata
   id="metadata59"><rdf:RDF><cc:Work
       rdf:about=""><dc:format>image/svg+xml</dc:format><dc:type
         rdf:resource="http://purl.org/dc/dcmitype/StillImage" /></cc:Work></rdf:RDF></metadata><defs
   id="defs57" /><sodipodi:namedview
   pagecolor="#ffffff"
   bordercolor="#666666"
   borderopacity="1"
   objecttolerance="10"
   gridtolerance="10"
   guidetolerance="10"
   inkscape:pageopacity="0"
   inkscape:pageshadow="2"
   inkscape:window-width="640"
   inkscape:window-height="480"
   id="namedview55"
   showgrid="false"
   inkscape:zoom="8.8653962"
   inkscape:cx="33.238675"
   inkscape:cy="29"
   inkscape:current-layer="Capa_1" />
<path
   style="fill:#00a8f0"
   d="M46.324,52.5H1.565c-1.03,0-1.779-0.978-1.51-1.973l10.166-27.871  c0.184-0.682,0.803-1.156,1.51-1.156H56.49c1.03,0,1.51,0.984,1.51,1.973L47.834,51.344C47.65,52.026,47.031,52.5,46.324,52.5z"
   id="path2" />
<g
   id="g6">
	<path
   style="fill:#F4EFDC;"
   d="M10.221,22.656c0.184-0.683,0.803-1.156,1.51-1.156H53v-9H9l-6,6v23.953L10.221,22.656z"
   id="path4" />
</g>
<path
   style="fill:#00a8f0;opacity:0.583"
   d="M3,18.5l6-6h16l-5-7H1.732C0.776,5.5,0,6.275,0,7.232V49.96c0.069,0.002,0.138,0.006,0.205,0.01  L3,42.349V18.5z"
   id="path8" />
<g
   id="g20">
	<rect
   x="28"
   y="17.5"
   style="fill:#D1BF86;"
   width="2"
   height="4"
   id="rect10" />
	<rect
   x="35"
   y="17.5"
   style="fill:#D1BF86;"
   width="2"
   height="4"
   id="rect12" />
	<rect
   x="42"
   y="17.5"
   style="fill:#D1BF86;"
   width="2"
   height="4"
   id="rect14" />
	<rect
   x="14"
   y="17.5"
   style="fill:#D1BF86;"
   width="2"
   height="4"
   id="rect16" />
	<rect
   x="21"
   y="17.5"
   style="fill:#D1BF86;"
   width="2"
   height="4"
   id="rect18" />
</g>
<polygon
   style="fill:#D1BF86;"
   points="9,18.5 9,12.5 3,18.5 "
   id="polygon22" />
<g
   id="g24">
</g>
<g
   id="g26">
</g>
<g
   id="g28">
</g>
<g
   id="g30">
</g>
<g
   id="g32">
</g>
<g
   id="g34">
</g>
<g
   id="g36">
</g>
<g
   id="g38">
</g>
<g
   id="g40">
</g>
<g
   id="g42">
</g>
<g
   id="g44">
</g>
<g
   id="g46">
</g>
<g
   id="g48">
</g>
<g
   id="g50">
</g>
<g
   id="g52">
</g>
</svg>