<?xml version="1.0" encoding="UTF-8" standalone="no"?>
<!-- Generator: Adobe Illustrator 19.0.0, SVG Export Plug-In . SVG Version: 6.00 Build 0)  -->

<svg
   xmlns:dc="http://purl.org/dc/elements/1.1/"
   xmlns:cc="http://creativecommons.org/ns#"
   xmlns:rdf="http://www.w3.org/1999/02/22-rdf-syntax-ns#"
   xmlns:svg="http://www.w3.org/2000/svg"
   xmlns="http://www.w3.org/2000/svg"
   xmlns:sodipodi="http://sodipodi.sourceforge.net/DTD/sodipodi-0.dtd"
   xmlns:inkscape="http://www.inkscape.org/namespaces/inkscape"
   version="1.1"
   id="Capa_1"
   x="0px"
   y="0px"
   viewBox="0 0 58 58"
   style="enable-background:new 0 0 58 58;"
   xml:space="preserve"
   sodipodi:docname="qt.svg"
   inkscape:version="0.92.4 5da689c313, 2019-01-14"><metadata
   id="metadata49"><rdf:RDF><cc:Work
       rdf:about=""><dc:format>image/svg+xml</dc:format><dc:type
         rdf:resource="http://purl.org/dc/dcmitype/StillImage" /><dc:title></dc:title></cc:Work></rdf:RDF></metadata><defs
   id="defs47" /><sodipodi:namedview
   pagecolor="#ffffff"
   bordercolor="#666666"
   borderopacity="1"
   objecttolerance="10"
   gridtolerance="10"
   guidetolerance="10"
   inkscape:pageopacity="0"
   inkscape:pageshadow="2"
   inkscape:window-width="640"
   inkscape:window-height="480"
   id="namedview45"
   showgrid="false"
   inkscape:zoom="8.8653962"
   inkscape:cx="22.465874"
   inkscape:cy="29"
   inkscape:current-layer="Capa_1" />





















<path
   style="fill:#00cc5c;stroke-width:1.37857378"
   d="M 7.8954578,5.5495981 H 55.142841 c 0,0 2.757158,0 2.757158,2.7571589 V 44.149554 L 50.004575,52.421 H 2.757142 c 0,0 -2.757142,0 -2.757142,-2.757157 V 13.820975 Z"
   id="path4"
   inkscape:connector-curvature="0" /><path
   style="opacity:0.2;stroke-width:1.37857378"
   d="m 20.727038,16.578132 c -7.662973,0 -9.69846,4.135712 -9.69846,12.407183 0,8.271442 1.999668,12.407087 9.69846,12.407087 h 2.186322 l 3.185233,5.514295 3.69149,-1.378566 -3.00752,-5.514308 c 2.864597,-1.378487 3.546015,-5.514218 3.546015,-11.028508 0,-8.271471 -1.938569,-12.407183 -9.60154,-12.407183 z m 15.153534,1.378566 v 5.514303 h -2.794837 v 2.757157 h 2.794837 v 8.271447 c 0,5.514218 1.252516,6.892797 5.298892,6.892797 h 3.023684 l -0.177719,-2.757066 h -2.032858 c -1.862045,0 -2.013967,-1.378579 -2.013967,-4.135731 v -8.271447 h 4.135639 v -2.757157 h -4.135639 v -5.514303 z m -15.185868,2.757146 c 4.451885,0 5.498147,2.757157 5.498138,8.271471 0,5.51429 -1.012534,8.271442 -5.498138,8.271442 -4.48559,0 -5.530461,-2.757152 -5.530461,-8.271442 0,-5.514314 1.078589,-8.271471 5.530461,-8.271471 z"
   id="path6"
   inkscape:connector-curvature="0" /><path
   style="fill:#ffffff;stroke-width:1.37857378"
   d="m 20.727038,15.199554 c -7.662973,0 -9.69846,4.135717 -9.69846,12.407183 0,8.271447 1.999668,12.407086 9.69846,12.407086 h 2.186322 l 3.185233,5.514308 3.69149,-1.378577 -3.00752,-5.514218 c 2.864597,-1.378579 3.546015,-5.514309 3.546015,-11.028599 0,-8.271466 -1.938569,-12.407183 -9.60154,-12.407183 z m 15.153534,1.378578 v 5.51429 h -2.794837 v 2.757158 h 2.794837 v 8.271447 c 0,5.514309 1.252516,6.892796 5.298892,6.892796 h 3.023684 l -0.177719,-2.757066 h -2.032858 c -1.862045,0 -2.013967,-1.378573 -2.013967,-4.13573 V 24.84958 h 4.135639 v -2.757158 h -4.135639 v -5.51429 z m -15.185868,2.757139 c 4.451885,0 5.498147,2.757151 5.498138,8.271466 0,5.51429 -1.012534,8.271447 -5.498138,8.271447 -4.48559,0 -5.530461,-2.757157 -5.530461,-8.271447 0,-5.514315 1.078589,-8.271466 5.530461,-8.271466 z"
   id="path8"
   inkscape:connector-curvature="0" /><path
   style="opacity:0.2;fill:#ffffff;stroke-width:1.37857378"
   d="M 7.8944769,5.5495981 0,13.820975 v 1.378579 L 7.8944769,6.92818 H 55.142842 c 0,0 2.757158,0 2.757158,2.757156 V 8.306757 c 0,-2.7571589 -2.757158,-2.7571589 -2.757158,-2.7571589 z"
   id="path10"
   inkscape:connector-curvature="0" /></svg>