<?xml version="1.0" encoding="UTF-8" standalone="no"?>
<svg
   xmlns:dc="http://purl.org/dc/elements/1.1/"
   xmlns:cc="http://creativecommons.org/ns#"
   xmlns:rdf="http://www.w3.org/1999/02/22-rdf-syntax-ns#"
   xmlns:svg="http://www.w3.org/2000/svg"
   xmlns="http://www.w3.org/2000/svg"
   xmlns:sodipodi="http://sodipodi.sourceforge.net/DTD/sodipodi-0.dtd"
   xmlns:inkscape="http://www.inkscape.org/namespaces/inkscape"
   width="48"
   height="48"
   version="1"
   id="svg14"
   sodipodi:docname="remove.svg"
   inkscape:version="0.92.4 5da689c313, 2019-01-14">
  <metadata
     id="metadata20">
    <rdf:RDF>
      <cc:Work
         rdf:about="">
        <dc:format>image/svg+xml</dc:format>
        <dc:type
           rdf:resource="http://purl.org/dc/dcmitype/StillImage" />
        <dc:title></dc:title>
      </cc:Work>
    </rdf:RDF>
  </metadata>
  <defs
     id="defs18" />
  <sodipodi:namedview
     pagecolor="#ffffff"
     bordercolor="#666666"
     borderopacity="1"
     objecttolerance="10"
     gridtolerance="10"
     guidetolerance="10"
     inkscape:pageopacity="0"
     inkscape:pageshadow="2"
     inkscape:window-width="640"
     inkscape:window-height="480"
     id="namedview16"
     showgrid="false"
     inkscape:zoom="10.712354"
     inkscape:cx="23.748924"
     inkscape:cy="24"
     inkscape:current-layer="svg14" />
  <path
     d="m 21.271981,22.466152 -3.381671,3.370357 -2.607785,2.218979 -2.903436,1.701928 -3.4920367,1.60619 -4.044522,1.312955 L 2.3091345,33.193606 2.2,33.480853 l 0.1463302,0.771975 0.5881829,1.285431 1.2480304,2.119637 1.2138352,1.571476 2.3516393,2.153149 1.065461,0.929956 0.9550989,0.292041 4.3340491,-0.03467 -2.569638,1.540367 -0.03817,0.387781 1.543691,1.059221 2.094137,1.059228 c 2.707265,1.318924 5.147423,-1.287836 5.147423,-1.287836 0,0 -1.313399,1.976015 -1.233034,2.671397 h 2.573712 l 1.359776,-0.191498 1.543673,-0.676232 -0.516373,0.706146 2.797168,0.03104 c 2.951133,-0.06108 4.902208,-1.551131 6.648905,-3.146542 l 1.836625,-1.895829 1.434702,-1.893434 1.064087,-1.735441 1.692198,-3.436186 1.28618,-2.793471 0.625386,-1.479322 H 40.782702 L 36.136656,31.01888 C 32.406178,30.096106 30.395151,27.689216 26.93718,25.848446 l -2.865283,-1.542747 -2.278077,-1.187287 -0.329708,-0.418904 -0.06667,-0.162769 z"
     id="path2"
     inkscape:connector-curvature="0"
     style="fill:#fed24c;stroke-width:1.27698755" />
  <path
     d="m 42.132928,1.3783188 -2.702068,4.4517196 -2.336792,4.5410066 -2.85916,4.952848 -1.975463,4.074227 -2.195367,-0.806601 -3.161507,-1.191015 h -0.773656 l -0.659808,0.161324 -1.064324,1.22187 -3.086976,3.562815 0.145353,0.353531 0.32986,0.418743 2.277958,1.187599 2.866909,1.541076 c 3.457853,1.841004 5.467374,4.24729 9.198519,5.170914 l 4.645523,0.472073 h 0.781533 l 0.05123,-0.178488 0.675506,-3.634857 0.553749,-2.938052 0.05522,-0.628129 -0.404525,-0.659015 -2.721684,-1.091488 -1.578842,-0.593797 -0.966131,-0.542308 -0.109911,-0.04123 0.129637,-0.181911 1.614131,-3.497584 1.453089,-3.089099 L 42.13329,10.237336 43.539132,7.2820503 44.733027,4.6494324 45.71371,2.098327 C 46.300654,0.19271718 43.719824,-0.83801855 42.132803,1.3783268 Z"
     id="path4"
     inkscape:connector-curvature="0"
     style="fill:#c2352a;stroke-width:1.27698755" />
  <path
     d="m 44.118065,0.13023315 c -0.655356,0.0429643 -1.391089,0.41722567 -1.985137,1.24832525 l -2.701783,4.4507642 -2.336666,4.5425564 -2.859852,4.952609 -1.975593,4.075314 -2.194956,-0.806689 -3.160949,-1.192074 h -0.775255 l -0.659437,0.160384 -1.064108,1.223188 -3.087378,3.561855 0.147164,0.353072 0.279291,0.353074 2.660923,-3.071144 1.064108,-1.223183 0.659437,-0.160386 h 0.775255 l 3.160949,1.189681 2.194956,0.809081 1.975593,-4.075314 2.859852,-4.952607 2.336666,-4.5425601 2.701783,-4.4507621 C 43.374143,0.84140758 45.20396,1.1079484 45.668569,2.2130087 l 0.04651,-0.1145388 C 46.081417,0.90747419 45.209426,0.05866131 44.11808,0.13023325 Z m -6.518098,21.30291285 -0.352892,0.763591 -0.128043,0.183122 0.109,0.04193 0.965986,0.542177 1.577753,0.593643 2.722245,1.091535 0.282026,0.458403 0.06956,-0.369836 0.053,-0.625953 L 42.493995,23.45228 39.771755,22.360743 38.194,21.7671 Z"
     id="path6"
     inkscape:connector-curvature="0"
     style="opacity:0.2;fill:#ffffff;stroke-width:1.27698755" />
  <path
     d="m 21.271981,22.466152 -3.381671,3.370357 -2.607785,2.218979 -2.903436,1.701928 -3.4920367,1.60619 -4.044522,1.312955 L 2.3091345,33.193606 2.2,33.480853 l 0.1463302,0.771975 0.053275,0.118495 2.4429256,-0.497895 4.0445218,-1.312956 3.4920364,-1.606189 2.903436,-1.70193 2.607785,-2.218978 3.381671,-3.370361 0.125403,0.07056 0.0666,0.162773 0.32971,0.418903 2.278077,1.187284 2.865278,1.542753 c 3.457975,1.840772 5.468998,4.247657 9.199477,5.170439 l 4.646058,0.470361 h 0.104853 l 0.505499,-1.196855 H 40.78259 L 36.136568,31.018879 C 32.406089,30.096105 30.395063,27.689215 26.937092,25.848445 L 24.071804,24.305695 21.793726,23.118408 21.46402,22.699503 21.39741,22.53673 Z m -7.169354,21.300515 -2.024645,0.01668 -0.544993,0.326741 -0.03817,0.38778 0.647178,0.444039 z m 6.177466,2.758761 c 0,0 -0.430518,0.440445 -1.107662,0.868924 -0.08601,0.238179 -0.143057,0.4548 -0.125404,0.605611 h 0.393747 c 0.363826,-0.734879 0.839297,-1.474535 0.839297,-1.474535 z"
     id="path10"
     inkscape:connector-curvature="0"
     style="opacity:0.2;fill:#ffffff;stroke-width:1.27698755" />
</svg>
