<?xml version="1.0" encoding="UTF-8" standalone="no"?>
<svg
   xmlns:dc="http://purl.org/dc/elements/1.1/"
   xmlns:cc="http://creativecommons.org/ns#"
   xmlns:rdf="http://www.w3.org/1999/02/22-rdf-syntax-ns#"
   xmlns:svg="http://www.w3.org/2000/svg"
   xmlns="http://www.w3.org/2000/svg"
   xmlns:sodipodi="http://sodipodi.sourceforge.net/DTD/sodipodi-0.dtd"
   xmlns:inkscape="http://www.inkscape.org/namespaces/inkscape"
   width="48"
   height="48"
   version="1"
   id="svg14"
   sodipodi:docname="remove.svg"
   inkscape:version="0.92.4 5da689c313, 2019-01-14">
  <metadata
     id="metadata20">
    <rdf:RDF>
      <cc:Work
         rdf:about="">
        <dc:format>image/svg+xml</dc:format>
        <dc:type
           rdf:resource="http://purl.org/dc/dcmitype/StillImage" />
        <dc:title />
      </cc:Work>
    </rdf:RDF>
  </metadata>
  <defs
     id="defs18" />
  <sodipodi:namedview
     pagecolor="#ffffff"
     bordercolor="#666666"
     borderopacity="1"
     objecttolerance="10"
     gridtolerance="10"
     guidetolerance="10"
     inkscape:pageopacity="0"
     inkscape:pageshadow="2"
     inkscape:window-width="640"
     inkscape:window-height="480"
     id="namedview16"
     showgrid="false"
     inkscape:zoom="9.6"
     inkscape:cx="13.335185"
     inkscape:cy="24"
     inkscape:current-layer="svg14" />
  <path
     d="m 21.271981,22.466152 -3.381671,3.370357 -2.607785,2.218979 -2.903436,1.701928 -3.4920367,1.60619 -4.044522,1.312955 L 2.3091345,33.193606 2.2,33.480853 l 0.1463302,0.771975 0.5881829,1.285431 1.2480304,2.119637 1.2138352,1.571476 2.3516393,2.153149 1.065461,0.929956 0.9550989,0.292041 4.3340491,-0.03467 -2.569638,1.540367 -0.03817,0.387781 1.543691,1.059221 2.094137,1.059228 c 2.707265,1.318924 5.147423,-1.287836 5.147423,-1.287836 0,0 -1.313399,1.976015 -1.233034,2.671397 h 2.573712 l 1.359776,-0.191498 1.543673,-0.676232 -0.516373,0.706146 2.797168,0.03104 c 2.951133,-0.06108 4.902208,-1.551131 6.648905,-3.146542 l 1.836625,-1.895829 1.434702,-1.893434 1.064087,-1.735441 1.692198,-3.436186 1.28618,-2.793471 0.625386,-1.479322 H 40.782702 L 36.136656,31.01888 C 32.406178,30.096106 30.395151,27.689216 26.93718,25.848446 l -2.865283,-1.542747 -2.278077,-1.187287 -0.329708,-0.418904 -0.06667,-0.162769 z"
     id="path2"
     inkscape:connector-curvature="0"
     style="fill:#fed24c;stroke-width:1.27698755" />
  <path
     d="m 42.132928,1.3783188 -2.702068,4.4517196 -2.336792,4.5410066 -2.85916,4.952848 -1.975463,4.074227 -2.195367,-0.806601 -3.161507,-1.191015 h -0.773656 l -0.659808,0.161324 -1.064324,1.22187 -3.086976,3.562815 0.145353,0.353531 0.32986,0.418743 2.277958,1.187599 2.866909,1.541076 c 3.457853,1.841004 5.467374,4.24729 9.198519,5.170914 l 4.645523,0.472073 h 0.781533 l 0.05123,-0.178488 0.675506,-3.634857 0.553749,-2.938052 0.05522,-0.628129 -0.404525,-0.659015 -2.721684,-1.091488 -1.578842,-0.593797 -0.966131,-0.542308 -0.109911,-0.04123 0.129637,-0.181911 1.614131,-3.497584 1.453089,-3.089099 L 42.13329,10.237336 43.539132,7.2820503 44.733027,4.6494324 45.71371,2.098327 C 46.300654,0.19271718 43.719824,-0.83801855 42.132803,1.3783268 Z"
     id="path4"
     inkscape:connector-curvature="0"
     style="fill:#c2352a;stroke-width:1.27698755" />
</svg>
