<?xml version="1.0" encoding="UTF-8" standalone="no"?>
<!-- Generator: Adobe Illustrator 19.0.0, SVG Export Plug-In . SVG Version: 6.00 Build 0)  -->

<svg
   xmlns:dc="http://purl.org/dc/elements/1.1/"
   xmlns:cc="http://creativecommons.org/ns#"
   xmlns:rdf="http://www.w3.org/1999/02/22-rdf-syntax-ns#"
   xmlns:svg="http://www.w3.org/2000/svg"
   xmlns="http://www.w3.org/2000/svg"
   xmlns:sodipodi="http://sodipodi.sourceforge.net/DTD/sodipodi-0.dtd"
   xmlns:inkscape="http://www.inkscape.org/namespaces/inkscape"
   version="1.1"
   id="Capa_1"
   x="0px"
   y="0px"
   viewBox="0 0 50 50"
   style="enable-background:new 0 0 50 50;"
   xml:space="preserve"
   sodipodi:docname="retry_all.svg"
   inkscape:version="0.92.4 5da689c313, 2019-01-14"><metadata
   id="metadata45"><rdf:RDF><cc:Work
       rdf:about=""><dc:format>image/svg+xml</dc:format><dc:type
         rdf:resource="http://purl.org/dc/dcmitype/StillImage" /><dc:title></dc:title></cc:Work></rdf:RDF></metadata><defs
   id="defs43" /><sodipodi:namedview
   pagecolor="#ffffff"
   bordercolor="#666666"
   borderopacity="1"
   objecttolerance="10"
   gridtolerance="10"
   guidetolerance="10"
   inkscape:pageopacity="0"
   inkscape:pageshadow="2"
   inkscape:window-width="640"
   inkscape:window-height="480"
   id="namedview41"
   showgrid="false"
   inkscape:zoom="10.28386"
   inkscape:cx="27.73272"
   inkscape:cy="25"
   inkscape:current-layer="Capa_1" />


<path
   style="fill:#43b05c;stroke-width:1.025846"
   d="m 36.316476,28.792982 -26.208911,0.09724 c -0.5819509,0.0022 -1.0523603,2.780754 -1.0523603,3.333754 0,0.553 0.4704052,1 1.0523603,1 h 26.308997 c 6.382562,0 8.401683,4.83776 8.401683,10.90276 0,0.553 3.64468,1.09724 4.226635,1.09724 0.581955,0 1.05236,-0.447 1.05236,-1 0,-7.168 -6.237503,-15.458981 -13.780764,-15.430994 z"
   id="path6"
   inkscape:connector-curvature="0"
   sodipodi:nodetypes="sssssssss" />
<polygon
   style="fill:#43b05c"
   points="1,38.5 12,46.5 12,30.5 "
   id="polygon8"
   transform="matrix(1,0,0,-1,-0.97239754,69.696374)"
   inkscape:transform-center-y="-1.2641168" />
<g
   id="g10">
</g>
<g
   id="g12">
</g>
<g
   id="g14">
</g>
<g
   id="g16">
</g>
<g
   id="g18">
</g>
<g
   id="g20">
</g>
<g
   id="g22">
</g>
<g
   id="g24">
</g>
<g
   id="g26">
</g>
<g
   id="g28">
</g>
<g
   id="g30">
</g>
<g
   id="g32">
</g>
<g
   id="g34">
</g>
<g
   id="g36">
</g>
<g
   id="g38">
</g>
<path
   style="fill:#43b05c;stroke-width:1.025846"
   d="m 36.244672,11.145501 -26.208911,0.09724 c -0.5819507,0.0022 -1.0523601,2.780754 -1.0523601,3.333754 0,0.553 0.4704052,1 1.0523601,1 h 26.308997 c 6.382562,0 8.401683,4.83776 8.401683,10.90276 0,0.553 3.64468,1.09724 4.226635,1.09724 0.581955,0 1.05236,-0.447 1.05236,-1 0,-7.168 -6.237503,-15.458981 -13.780764,-15.430994 z"
   id="path6-3"
   inkscape:connector-curvature="0"
   sodipodi:nodetypes="sssssssss" /><polygon
   style="fill:#43b05c"
   points="1,38.5 12,46.5 12,30.5 "
   id="polygon8-6"
   transform="matrix(1,0,0,-1,-1.0442014,52.048893)"
   inkscape:transform-center-y="-1.2641168" /></svg>