<?xml version="1.0" encoding="UTF-8" standalone="no"?>
<!-- Generator: Adobe Illustrator 19.0.0, SVG Export Plug-In . SVG Version: 6.00 Build 0)  -->

<svg
   xmlns:dc="http://purl.org/dc/elements/1.1/"
   xmlns:cc="http://creativecommons.org/ns#"
   xmlns:rdf="http://www.w3.org/1999/02/22-rdf-syntax-ns#"
   xmlns:svg="http://www.w3.org/2000/svg"
   xmlns="http://www.w3.org/2000/svg"
   xmlns:sodipodi="http://sodipodi.sourceforge.net/DTD/sodipodi-0.dtd"
   xmlns:inkscape="http://www.inkscape.org/namespaces/inkscape"
   version="1.1"
   id="Capa_1"
   x="0px"
   y="0px"
   viewBox="0 0 55 55"
   style="enable-background:new 0 0 55 55;"
   xml:space="preserve"
   sodipodi:docname="retry_all.svg"
   inkscape:version="0.92.4 5da689c313, 2019-01-14"><metadata
   id="metadata41"><rdf:RDF><cc:Work
       rdf:about=""><dc:format>image/svg+xml</dc:format><dc:type
         rdf:resource="http://purl.org/dc/dcmitype/StillImage" /><dc:title></dc:title></cc:Work></rdf:RDF></metadata><defs
   id="defs39" /><sodipodi:namedview
   pagecolor="#ffffff"
   bordercolor="#666666"
   borderopacity="1"
   objecttolerance="10"
   gridtolerance="10"
   guidetolerance="10"
   inkscape:pageopacity="0"
   inkscape:pageshadow="2"
   inkscape:window-width="640"
   inkscape:window-height="480"
   id="namedview37"
   showgrid="false"
   inkscape:zoom="9.6580489"
   inkscape:cx="25.853189"
   inkscape:cy="27.5"
   inkscape:current-layer="Capa_1" />

<path
   style="fill:#3f9533;fill-opacity:1;stroke-width:1.65333712"
   d="M 24.119915,21.90418 V 10.247 L 3.75,29.675646 24.119915,49.104258 V 37.447083 c 0,0 18.088481,-4.153043 30.444534,15.542917 0,0 3.080959,-15.032429 -10.719689,-25.926317 0,0.0013 -6.25014,-5.54437 -19.724845,-5.159503 z"
   id="path4"
   inkscape:connector-curvature="0" />
<g
   id="g6"
   transform="matrix(-1,0,0,1,55,0)">
</g>
<g
   id="g8"
   transform="matrix(-1,0,0,1,55,0)">
</g>
<g
   id="g10"
   transform="matrix(-1,0,0,1,55,0)">
</g>
<g
   id="g12"
   transform="matrix(-1,0,0,1,55,0)">
</g>
<g
   id="g14"
   transform="matrix(-1,0,0,1,55,0)">
</g>
<g
   id="g16"
   transform="matrix(-1,0,0,1,55,0)">
</g>
<g
   id="g18"
   transform="matrix(-1,0,0,1,55,0)">
</g>
<g
   id="g20"
   transform="matrix(-1,0,0,1,55,0)">
</g>
<g
   id="g22"
   transform="matrix(-1,0,0,1,55,0)">
</g>
<g
   id="g24"
   transform="matrix(-1,0,0,1,55,0)">
</g>
<g
   id="g26"
   transform="matrix(-1,0,0,1,55,0)">
</g>
<g
   id="g28"
   transform="matrix(-1,0,0,1,55,0)">
</g>
<g
   id="g30"
   transform="matrix(-1,0,0,1,55,0)">
</g>
<g
   id="g32"
   transform="matrix(-1,0,0,1,55,0)">
</g>
<g
   id="g34"
   transform="matrix(-1,0,0,1,55,0)">
</g>
<path
   style="fill:#3f9533;fill-opacity:0.40659341;stroke-width:1.65333712"
   d="M 20.568914,12.18518 V 0.528 L 0.199,19.956646 20.568914,39.385258 V 27.728083 c 0,0 18.088482,-4.153043 30.444534,15.542917 0,0 3.080959,-15.032429 -10.719689,-25.926317 0,0.0013 -6.25014,-5.54437 -19.724845,-5.159503 z"
   id="path4-3"
   inkscape:connector-curvature="0" /></svg>