<?xml version="1.0" encoding="UTF-8" standalone="no"?>
<!-- Generator: Adobe Illustrator 19.0.0, SVG Export Plug-In . SVG Version: 6.00 Build 0)  -->

<svg
   xmlns:dc="http://purl.org/dc/elements/1.1/"
   xmlns:cc="http://creativecommons.org/ns#"
   xmlns:rdf="http://www.w3.org/1999/02/22-rdf-syntax-ns#"
   xmlns:svg="http://www.w3.org/2000/svg"
   xmlns="http://www.w3.org/2000/svg"
   xmlns:xlink="http://www.w3.org/1999/xlink"
   xmlns:sodipodi="http://sodipodi.sourceforge.net/DTD/sodipodi-0.dtd"
   xmlns:inkscape="http://www.inkscape.org/namespaces/inkscape"
   version="1.1"
   id="Capa_1"
   x="0px"
   y="0px"
   viewBox="0 0 58 58"
   style="enable-background:new 0 0 58 58;"
   xml:space="preserve"
   sodipodi:docname="settings_folder.svg"
   inkscape:version="0.92.4 5da689c313, 2019-01-14"><metadata
   id="metadata43"><rdf:RDF><cc:Work
       rdf:about=""><dc:format>image/svg+xml</dc:format><dc:type
         rdf:resource="http://purl.org/dc/dcmitype/StillImage" /></cc:Work></rdf:RDF></metadata><defs
   id="defs41"><linearGradient
     inkscape:collect="always"
     id="linearGradient1105"><stop
       style="stop-color:#019ac9;stop-opacity:1"
       offset="0"
       id="stop1101" /><stop
       style="stop-color:#91e5fd;stop-opacity:1"
       offset="1"
       id="stop1103" /></linearGradient><clipPath
     id="clipPath1774"
     clipPathUnits="userSpaceOnUse"><path
       inkscape:connector-curvature="0"
       style="opacity:1;fill-opacity:1;stroke:none;stroke-width:25.65397453;stroke-linecap:round;stroke-linejoin:round;stroke-miterlimit:4;stroke-dasharray:none;stroke-opacity:1;paint-order:stroke markers fill"
       d="M 576.85567,1.9102362e-4 A 576.85532,580.7395 0 0 0 2.5984252e-4,580.7404 576.85532,580.7395 0 0 0 576.85567,1161.4786 576.85532,580.7395 0 0 0 919.00807,1047.4709 l 149.03903,132.1347 a 79.092908,79.62547 0 1 0 104.5372,-119.5098 L 1032.4261,935.8381 A 576.85532,580.7395 0 0 0 1153.7111,580.7404 576.85532,580.7395 0 0 0 576.85567,1.9102362e-4 Z m 0,71.91010097638 A 505.4261,508.82934 0 0 1 1082.2814,580.7384 505.4261,508.82934 0 0 1 576.85567,1089.5686 505.4261,508.82934 0 0 1 71.429861,580.7384 505.4261,508.82934 0 0 1 576.85567,71.910292 Z"
       id="path1776" /></clipPath><linearGradient
     y2="77.428459"
     x2="74.762482"
     y1="20.78064"
     x1="37.623547"
     gradientTransform="matrix(2.6770173,0,0,2.6770171,-93.052904,-5.1936417)"
     gradientUnits="userSpaceOnUse"
     id="linearGradient4300"
     xlink:href="#linearGradient1105"
     inkscape:collect="always" /></defs><sodipodi:namedview
   pagecolor="#ffffff"
   bordercolor="#666666"
   borderopacity="1"
   objecttolerance="10"
   gridtolerance="10"
   guidetolerance="10"
   inkscape:pageopacity="0"
   inkscape:pageshadow="2"
   inkscape:window-width="640"
   inkscape:window-height="480"
   id="namedview39"
   showgrid="false"
   inkscape:zoom="7.1594467"
   inkscape:cx="28.183214"
   inkscape:cy="24.434121"
   inkscape:current-layer="Capa_1" />
<path
   style="fill:#434a61"
   d="M46.324,52.5H1.565c-1.03,0-1.779-0.978-1.51-1.973l10.166-27.871  c0.184-0.682,0.803-1.156,1.51-1.156H56.49c1.03,0,1.51,0.984,1.51,1.973L47.834,51.344C47.65,52.026,47.031,52.5,46.324,52.5z"
   id="path2" />
<g
   id="g6"
   style="opacity:0.77399998;fill:#009cf0">
	<path
   style="fill:#5d6686"
   d="M 50.268,12.5 H 25 l -5,-7 H 1.732 C 0.776,5.5 0,6.275 0,7.232 V 49.96 c 0.069,0.002 0.138,0.006 0.205,0.01 L 10.22,22.656 C 10.404,21.973 11.023,21.5 11.73,21.5 H 52 V 14.232 C 52,13.275 51.224,12.5 50.268,12.5 Z"
   id="path4"
   inkscape:connector-curvature="0" />
</g>
<g
   id="g8">
</g>
<g
   id="g10">
</g>
<g
   id="g12">
</g>
<g
   id="g14">
</g>
<g
   id="g16">
</g>
<g
   id="g18">
</g>
<g
   id="g20">
</g>
<g
   id="g22">
</g>
<g
   id="g24">
</g>
<g
   id="g26">
</g>
<g
   id="g28">
</g>
<g
   id="g30">
</g>
<g
   id="g32">
</g>
<g
   id="g34">
</g>
<g
   id="g36">
</g>
</svg>