<?xml version="1.0" encoding="UTF-8" standalone="no"?>
<!-- Generator: Adobe Illustrator 19.0.0, SVG Export Plug-In . SVG Version: 6.00 Build 0)  -->

<svg
   xmlns:dc="http://purl.org/dc/elements/1.1/"
   xmlns:cc="http://creativecommons.org/ns#"
   xmlns:rdf="http://www.w3.org/1999/02/22-rdf-syntax-ns#"
   xmlns:svg="http://www.w3.org/2000/svg"
   xmlns="http://www.w3.org/2000/svg"
   xmlns:sodipodi="http://sodipodi.sourceforge.net/DTD/sodipodi-0.dtd"
   xmlns:inkscape="http://www.inkscape.org/namespaces/inkscape"
   version="1.1"
   id="Capa_1"
   x="0px"
   y="0px"
   viewBox="0 0 52 52"
   style="enable-background:new 0 0 52 52;"
   xml:space="preserve"
   sodipodi:docname="settings.svg"
   inkscape:version="0.92.4 5da689c313, 2019-01-14"><metadata
   id="metadata41"><rdf:RDF><cc:Work
       rdf:about=""><dc:format>image/svg+xml</dc:format><dc:type
         rdf:resource="http://purl.org/dc/dcmitype/StillImage" /></cc:Work></rdf:RDF></metadata><defs
   id="defs39" /><sodipodi:namedview
   pagecolor="#ffffff"
   bordercolor="#666666"
   borderopacity="1"
   objecttolerance="10"
   gridtolerance="10"
   guidetolerance="10"
   inkscape:pageopacity="0"
   inkscape:pageshadow="2"
   inkscape:window-width="640"
   inkscape:window-height="480"
   id="namedview37"
   showgrid="false"
   inkscape:zoom="10.282024"
   inkscape:cx="25.402984"
   inkscape:cy="26"
   inkscape:current-layer="Capa_1" />
<path
   style="fill:#1a38ac;fill-opacity:0.73703706;stroke:#1b4a91;stroke-opacity:1"
   d="M48.872,22.898c-4.643-0.893-6.772-6.318-3.976-10.13l1.964-2.678l-4.243-4.243l-2.638,1.787  c-3.914,2.652-9.256,0.321-9.974-4.351L29.5,0h-6l-0.777,4.041c-0.873,4.54-6.105,6.708-9.933,4.115L9.383,5.847L5.14,10.09  l1.964,2.678c2.796,3.812,0.666,9.237-3.976,10.13L0,23.5v6l3.283,0.505c4.673,0.719,7.003,6.061,4.351,9.975l-1.787,2.637  l4.243,4.243l2.678-1.964c3.812-2.796,9.237-0.667,10.13,3.976L23.5,52h6l0.355-2.309c0.735-4.776,6.274-7.071,10.171-4.213  l1.884,1.382l4.243-4.243l-1.787-2.637c-2.651-3.914-0.321-9.256,4.351-9.975L52,29.5v-6L48.872,22.898z M26.5,31  c-2.485,0-4.5-2.015-4.5-4.5s2.015-4.5,4.5-4.5s4.5,2.015,4.5,4.5S28.985,31,26.5,31z"
   id="path2" />
<path
   style="fill:#556080;"
   d="M26.5,17c-5.247,0-9.5,4.253-9.5,9.5s4.253,9.5,9.5,9.5s9.5-4.253,9.5-9.5S31.747,17,26.5,17z   M26.5,31c-2.485,0-4.5-2.015-4.5-4.5s2.015-4.5,4.5-4.5s4.5,2.015,4.5,4.5S28.985,31,26.5,31z"
   id="path4" />
<g
   id="g6">
</g>
<g
   id="g8">
</g>
<g
   id="g10">
</g>
<g
   id="g12">
</g>
<g
   id="g14">
</g>
<g
   id="g16">
</g>
<g
   id="g18">
</g>
<g
   id="g20">
</g>
<g
   id="g22">
</g>
<g
   id="g24">
</g>
<g
   id="g26">
</g>
<g
   id="g28">
</g>
<g
   id="g30">
</g>
<g
   id="g32">
</g>
<g
   id="g34">
</g>
</svg>