<?xml version="1.0" encoding="UTF-8" standalone="no"?>
<svg
   xmlns:dc="http://purl.org/dc/elements/1.1/"
   xmlns:cc="http://creativecommons.org/ns#"
   xmlns:rdf="http://www.w3.org/1999/02/22-rdf-syntax-ns#"
   xmlns:svg="http://www.w3.org/2000/svg"
   xmlns="http://www.w3.org/2000/svg"
   xmlns:sodipodi="http://sodipodi.sourceforge.net/DTD/sodipodi-0.dtd"
   xmlns:inkscape="http://www.inkscape.org/namespaces/inkscape"
   width="48"
   height="48"
   version="1"
   id="svg12"
   sodipodi:docname="system_hibernate.svg"
   inkscape:version="0.92.4 5da689c313, 2019-01-14">
  <metadata
     id="metadata18">
    <rdf:RDF>
      <cc:Work
         rdf:about="">
        <dc:format>image/svg+xml</dc:format>
        <dc:type
           rdf:resource="http://purl.org/dc/dcmitype/StillImage" />
      </cc:Work>
    </rdf:RDF>
  </metadata>
  <defs
     id="defs16" />
  <sodipodi:namedview
     pagecolor="#ffffff"
     bordercolor="#666666"
     borderopacity="1"
     objecttolerance="10"
     gridtolerance="10"
     guidetolerance="10"
     inkscape:pageopacity="0"
     inkscape:pageshadow="2"
     inkscape:window-width="640"
     inkscape:window-height="480"
     id="namedview14"
     showgrid="false"
     inkscape:zoom="9.69"
     inkscape:cx="25.779329"
     inkscape:cy="24"
     inkscape:current-layer="svg12" />
  <circle
     cx="24"
     cy="24"
     r="24"
     id="circle2"
     style="fill:#9f65d3;stroke-width:1.20000398" />
  <path
     d="m 24.000029,9.5999677 c -8.615639,0 -15.6000189,6.9843803 -15.6000189,15.6000183 0,8.615638 6.9843799,15.600019 15.6000189,15.600019 8.615637,0 15.600018,-6.984381 15.600018,-15.600019 0,-8.615638 -6.984381,-15.6000183 -15.600018,-15.6000183 z m 0,3.6000023 c 6.627369,0 12.000015,5.372647 12.000015,12.000016 0,6.627368 -5.372646,12.000015 -12.000015,12.000015 -6.627368,0 -12.000015,-5.372647 -12.000015,-12.000015 0,-6.627369 5.372647,-12.000016 12.000015,-12.000016 z m 0,7.20001 a 4.8000057,4.8000057 0 0 0 -4.800007,4.800006 4.8000057,4.8000057 0 0 0 4.800007,4.800006 4.8000057,4.8000057 0 0 0 4.800007,-4.800006 4.8000057,4.8000057 0 0 0 -4.800007,-4.800006 z"
     id="path4"
     inkscape:connector-curvature="0"
     style="opacity:0.2;stroke-width:1.20000398" />
  <path
     d="m 24.000029,8.399966 c -8.615639,0 -15.6000189,6.984381 -15.6000189,15.600019 0,8.615638 6.9843799,15.600018 15.6000189,15.600018 8.615637,0 15.600018,-6.98438 15.600018,-15.600018 0,-8.615638 -6.984381,-15.600019 -15.600018,-15.600019 z m 0,3.600004 c 6.627369,0 12.000015,5.372645 12.000015,12.000015 0,6.627367 -5.372646,12.000014 -12.000015,12.000014 -6.627368,0 -12.000015,-5.372647 -12.000015,-12.000014 0,-6.62737 5.372647,-12.000015 12.000015,-12.000015 z m 0,7.200007 a 4.8000057,4.8000057 0 0 0 -4.800007,4.800008 4.8000057,4.8000057 0 0 0 4.800007,4.800005 4.8000057,4.8000057 0 0 0 4.800007,-4.800005 4.8000057,4.8000057 0 0 0 -4.800007,-4.800008 z"
     id="path6"
     inkscape:connector-curvature="0"
     style="fill:#ffffff;stroke-width:1.20000398" />
  <path
     d="M 24.000029,-4.3966932e-5 A 24.000029,24.000029 0 0 0 0,23.999985 24.000029,24.000029 0 0 0 0.02580003,24.698385 24.000029,24.000029 0 0 1 23.99944,1.1999575 24.000029,24.000029 0 0 1 47.974246,24.501585 24.000029,24.000029 0 0 0 47.999376,23.999985 24.000029,24.000029 0 0 0 23.999349,-4.3966932e-5 Z"
     id="path8"
     inkscape:connector-curvature="0"
     style="opacity:0.2;fill:#ffffff;stroke-width:1.20000398" />
</svg>
