<?xml version="1.0" encoding="UTF-8" standalone="no"?>
<svg
   xmlns:dc="http://purl.org/dc/elements/1.1/"
   xmlns:cc="http://creativecommons.org/ns#"
   xmlns:rdf="http://www.w3.org/1999/02/22-rdf-syntax-ns#"
   xmlns:svg="http://www.w3.org/2000/svg"
   xmlns="http://www.w3.org/2000/svg"
   xmlns:sodipodi="http://sodipodi.sourceforge.net/DTD/sodipodi-0.dtd"
   xmlns:inkscape="http://www.inkscape.org/namespaces/inkscape"
   width="48"
   height="48"
   version="1.1"
   id="svg20"
   sodipodi:docname="system_poweroff.svg"
   inkscape:version="0.92.4 5da689c313, 2019-01-14">
  <metadata
     id="metadata26">
    <rdf:RDF>
      <cc:Work
         rdf:about="">
        <dc:format>image/svg+xml</dc:format>
        <dc:type
           rdf:resource="http://purl.org/dc/dcmitype/StillImage" />
      </cc:Work>
    </rdf:RDF>
  </metadata>
  <defs
     id="defs24" />
  <sodipodi:namedview
     pagecolor="#ffffff"
     bordercolor="#666666"
     borderopacity="1"
     objecttolerance="10"
     gridtolerance="10"
     guidetolerance="10"
     inkscape:pageopacity="0"
     inkscape:pageshadow="2"
     inkscape:window-width="640"
     inkscape:window-height="480"
     id="namedview22"
     showgrid="false"
     inkscape:zoom="11.140414"
     inkscape:cx="18.563084"
     inkscape:cy="24"
     inkscape:current-layer="svg20" />
  <circle
     cx="23.999994"
     cy="24.000006"
     r="23.999994"
     id="circle2"
     style="fill:#4f4f4f;stroke-width:1.20000041" />
  <circle
     cx="23.999994"
     cy="25.200008"
     r="20.399996"
     id="circle4"
     style="opacity:0.2;stroke-width:1.20000041" />
  <circle
     cx="23.999994"
     cy="24.000006"
     r="20.399996"
     id="circle6"
     style="fill:#cb4444;stroke-width:1.20000041" />
  <path
     d="m 23.999998,12.000003 a 13.2,13.2 0 0 0 -0.492189,0.02282 13.2,13.2 0 0 1 0.719531,-0.0168 13.2,13.2 0 0 0 -0.227342,0 z m 0.557807,0.0192 a 13.2,13.2 0 0 1 0.750004,0.05878 13.2,13.2 0 0 0 -0.750004,-0.05878 z m -1.68048,0.03722 a 13.2,13.2 0 0 0 -0.674998,0.0816 13.2,13.2 0 0 1 0.674998,-0.0816 z m 3.08208,0.1008 a 13.2,13.2 0 0 1 0.672663,0.121802 13.2,13.2 0 0 0 -0.672663,-0.121802 z m -4.4016,0.0768 a 13.2,13.2 0 0 0 -0.616403,0.14064 13.2,13.2 0 0 1 0.616403,-0.14064 z m 5.671923,0.178199 a 13.2,13.2 0 0 1 0.682031,0.194525 13.2,13.2 0 0 0 -0.682031,-0.194525 z m -6.972598,0.13824 a 13.2,13.2 0 0 0 -0.574228,0.192125 13.2,13.2 0 0 1 0.574228,-0.192125 z m 8.324994,0.27888 a 13.2,13.2 0 0 1 0.356261,0.135965 13.2,13.2 0 0 0 -0.356261,-0.135965 z m -9.377397,0.0864 a 13.2,13.2 0 0 0 -8.407199,12.284397 13.2,13.2 0 0 0 13.199999,13.2 13.2,13.2 0 0 0 13.200002,-13.2 13.2,13.2 0 0 0 -8.008803,-12.12 l -0.93984,2.196115 a 10.8,10.8 0 0 1 6.548406,9.924 10.8,10.8 0 0 1 -10.800002,10.8 10.8,10.8 0 0 1 -10.800006,-10.8 10.8,10.8 0 0 1 6.871923,-10.05936 L 19.202013,12.91669 Z"
     id="path8"
     inkscape:connector-curvature="0"
     style="opacity:0.2;stroke-width:1.20000041" />
  <path
     d="m 23.999998,10.800003 a 13.2,13.2 0 0 0 -0.492,0.024 13.2,13.2 0 0 1 0.718803,-0.0168 13.2,13.2 0 0 0 -0.226803,-0.0071 z m 0.557807,0.01876 a 13.2,13.2 0 0 1 0.750004,0.05858 13.2,13.2 0 0 0 -0.750004,-0.05858 z m -1.68048,0.03752 a 13.2,13.2 0 0 0 -0.674998,0.08202 13.2,13.2 0 0 1 0.674998,-0.08202 z m 3.08208,0.10078 a 13.2,13.2 0 0 1 0.672663,0.121872 13.2,13.2 0 0 0 -0.672663,-0.121872 z m -4.4016,0.07733 a 13.2,13.2 0 0 0 -0.616403,0.140629 13.2,13.2 0 0 1 0.616403,-0.140629 z m 5.671923,0.178127 a 13.2,13.2 0 0 1 0.682031,0.194532 13.2,13.2 0 0 0 -0.682031,-0.194532 z m -6.972598,0.138276 a 13.2,13.2 0 0 0 -0.574228,0.192197 13.2,13.2 0 0 1 0.574228,-0.192197 z m 8.324994,0.278905 a 13.2,13.2 0 0 1 0.356261,0.135935 13.2,13.2 0 0 0 -0.356261,-0.135935 z m -9.377397,0.08672 a 13.2,13.2 0 0 0 -8.407199,12.2856 13.2,13.2 0 0 0 13.199999,13.2 13.2,13.2 0 0 0 13.200002,-13.2 13.2,13.2 0 0 0 -8.008803,-12.120001 l -0.93984,2.196117 a 10.8,10.8 0 0 1 6.548406,9.924 10.8,10.8 0 0 1 -10.800002,10.8 10.8,10.8 0 0 1 -10.800006,-10.8 10.8,10.8 0 0 1 6.871923,-10.05936 l -0.867194,-2.224203 z"
     id="path10"
     inkscape:connector-curvature="0"
     style="fill:#ffffff;stroke-width:1.20000041" />
  <rect
     width="2.4000008"
     height="10.799999"
     x="22.800003"
     y="9"
     id="rect12"
     style="opacity:0.2;stroke-width:1.20000041" />
  <rect
     width="2.4000008"
     height="10.799999"
     x="22.800003"
     y="8.4000025"
     id="rect14"
     style="fill:#ffffff;stroke-width:1.20000041" />
  <path
     d="M 23.999998,1.0278373e-6 A 23.999999,24 0 0 0 0.1692,21.422403 23.999999,22.8 0 0 1 23.999998,1.200001 23.999999,22.8 0 0 1 47.9064,22.136399 23.999999,24 0 0 0 23.999998,1.0278373e-6 Z M 47.9064,22.136399 A 23.999999,24 0 0 1 48,24.000003 23.999999,22.8 0 0 0 47.9064,22.136399 Z M 0.1692,21.422403 a 23.999999,22.8 0 0 0 -0.05856,0.4704 23.999999,24 0 0 1 0.05856,-0.4704 z m -0.05856,0.4704 A 23.999999,24 0 0 0 4.7999849e-4,24.000003 23.999999,22.8 0 0 1 0.11064,21.892803 Z"
     id="path16"
     inkscape:connector-curvature="0"
     style="opacity:0.1;fill:#ffffff;stroke-width:1.20000041" />
</svg>
