<?xml version="1.0" encoding="UTF-8" standalone="no"?>
<svg
   xmlns:dc="http://purl.org/dc/elements/1.1/"
   xmlns:cc="http://creativecommons.org/ns#"
   xmlns:rdf="http://www.w3.org/1999/02/22-rdf-syntax-ns#"
   xmlns:svg="http://www.w3.org/2000/svg"
   xmlns="http://www.w3.org/2000/svg"
   xmlns:sodipodi="http://sodipodi.sourceforge.net/DTD/sodipodi-0.dtd"
   xmlns:inkscape="http://www.inkscape.org/namespaces/inkscape"
   width="48"
   height="48"
   version="1"
   id="svg12"
   sodipodi:docname="system-shutdown.svg"
   inkscape:version="0.92.4 5da689c313, 2019-01-14">
  <metadata
     id="metadata18">
    <rdf:RDF>
      <cc:Work
         rdf:about="">
        <dc:format>image/svg+xml</dc:format>
        <dc:type
           rdf:resource="http://purl.org/dc/dcmitype/StillImage" />
      </cc:Work>
    </rdf:RDF>
  </metadata>
  <defs
     id="defs16" />
  <sodipodi:namedview
     pagecolor="#ffffff"
     bordercolor="#666666"
     borderopacity="1"
     objecttolerance="10"
     gridtolerance="10"
     guidetolerance="10"
     inkscape:pageopacity="0"
     inkscape:pageshadow="2"
     inkscape:window-width="640"
     inkscape:window-height="480"
     id="namedview14"
     showgrid="false"
     inkscape:zoom="10.712354"
     inkscape:cx="16.452148"
     inkscape:cy="24"
     inkscape:current-layer="svg12" />
  <circle
     cx="23.950001"
     cy="24.049999"
     r="23.950001"
     id="circle2"
     style="fill:#c2352a;stroke-width:1.19750071" />
  <path
     d="m 23.950004,9.679994 c -8.597687,0 -15.5675027,6.969811 -15.5675027,15.567503 0,8.597689 6.9698157,15.567503 15.5675027,15.567503 8.59769,0 15.567503,-6.969814 15.567503,-15.567503 0,-8.597692 -6.969813,-15.567503 -15.567503,-15.567503 z m 0,3.5925 c 6.613564,0 11.975002,5.361449 11.975002,11.975003 0,6.613552 -5.361438,11.975002 -11.975002,11.975002 -6.613554,0 -11.975003,-5.36145 -11.975003,-11.975002 0,-6.613554 5.361449,-11.975003 11.975003,-11.975003 z m 0,4.79 c -1.326831,0 -2.395001,1.12101 -2.395001,2.507322 v 9.35547 c 0,1.386705 1.06817,2.507564 2.395001,2.507564 1.32683,0 2.395,-1.121012 2.395,-2.507316 v -9.355473 c 0,-1.386705 -1.06817,-2.507567 -2.395,-2.507567 z"
     id="path4"
     inkscape:connector-curvature="0"
     style="opacity:0.2;fill-rule:evenodd;stroke-width:1.19750071" />
  <path
     d="m 23.950004,8.4824924 c -8.598052,0 -15.5675027,6.9694506 -15.5675027,15.5675036 0,8.598052 6.9694507,15.567503 15.5675027,15.567503 8.598053,0 15.567503,-6.969451 15.567503,-15.567503 0,-8.598053 -6.96945,-15.5675036 -15.567503,-15.5675036 z m 0,3.5925016 c 6.6138,0 11.975002,5.361199 11.975002,11.975002 0,6.613786 -5.361202,11.975003 -11.975002,11.975003 -6.613787,0 -11.975003,-5.361217 -11.975003,-11.975003 0,-6.613803 5.361216,-11.975002 11.975003,-11.975002 z m 0,4.78999 c -1.326831,0 -2.395001,1.12087 -2.395001,2.507577 v 9.354871 c 0,1.386705 1.06817,2.507565 2.395001,2.507565 1.32683,0 2.395,-1.12086 2.395,-2.507565 v -9.354871 c 0,-1.386707 -1.06817,-2.507577 -2.395,-2.507577 z"
     id="path6"
     inkscape:connector-curvature="0"
     style="fill:#ffffff;fill-rule:evenodd;stroke-width:1.19750071" />
  <path
     d="M 23.950004,0.09999124 A 23.950004,23.950004 0 0 0 0,24.049996 23.950004,23.950004 0 0 0 0.02574625,24.746942 23.950004,23.950004 0 0 1 23.949409,1.2974912 23.950004,23.950004 0 0 1 47.874267,24.550551 23.950004,23.950004 0 0 0 47.89941,24.049996 23.950004,23.950004 0 0 0 23.949403,0.09999124 Z"
     id="path8"
     inkscape:connector-curvature="0"
     style="opacity:0.2;fill:#ffffff;stroke-width:1.19750071" />
</svg>
