<?xml version="1.0" encoding="UTF-8" standalone="no"?>
<svg
   xmlns:dc="http://purl.org/dc/elements/1.1/"
   xmlns:cc="http://creativecommons.org/ns#"
   xmlns:rdf="http://www.w3.org/1999/02/22-rdf-syntax-ns#"
   xmlns:svg="http://www.w3.org/2000/svg"
   xmlns="http://www.w3.org/2000/svg"
   xmlns:sodipodi="http://sodipodi.sourceforge.net/DTD/sodipodi-0.dtd"
   xmlns:inkscape="http://www.inkscape.org/namespaces/inkscape"
   viewBox="0 0 512 512"
   version="1.1"
   id="svg4"
   sodipodi:docname="twitter.svg"
   inkscape:version="0.92.4 5da689c313, 2019-01-14">
  <metadata
     id="metadata10">
    <rdf:RDF>
      <cc:Work
         rdf:about="">
        <dc:format>image/svg+xml</dc:format>
        <dc:type
           rdf:resource="http://purl.org/dc/dcmitype/StillImage" />
      </cc:Work>
    </rdf:RDF>
  </metadata>
  <defs
     id="defs8" />
  <sodipodi:namedview
     pagecolor="#ffffff"
     bordercolor="#666666"
     borderopacity="1"
     objecttolerance="10"
     gridtolerance="10"
     guidetolerance="10"
     inkscape:pageopacity="0"
     inkscape:pageshadow="2"
     inkscape:window-width="640"
     inkscape:window-height="480"
     id="namedview6"
     showgrid="false"
     inkscape:zoom="2.0381754"
     inkscape:cx="158.99509"
     inkscape:cy="256"
     inkscape:current-layer="svg4" />
  <circle
     style="opacity:1;fill:#19bfe5;fill-opacity:1;fill-rule:evenodd;stroke:none;stroke-width:2.16419458;stroke-linecap:round;stroke-linejoin:round;stroke-miterlimit:4;stroke-dasharray:none;stroke-dashoffset:0;stroke-opacity:1;paint-order:markers stroke fill"
     id="path817"
     cx="255.85857"
     cy="256.14148"
     r="254.7764" />
  <path
     d="m 390.37527,190.38677 c 0.21423,3.00082 0.21423,6.00159 0.21423,9.00214 0,91.52298 -69.65979,196.97821 -196.97774,196.97821 -39.22416,0 -75.66171,-11.36058 -106.312615,-31.07926 5.573022,0.64268 10.930943,0.85761 16.718465,0.85761 32.36484,0 62.15883,-10.93128 85.95042,-29.57882 -30.4364,-0.64355 -55.94297,-20.57702 -64.73102,-48.01196 4.28709,0.64243 8.57348,1.07132 13.07527,1.07132 6.2155,0 12.43188,-0.85795 18.21858,-2.35742 -31.72195,-6.43101 -55.51458,-34.29441 -55.51458,-67.94602 v -0.85677 c 9.2163,5.14385 19.9342,8.35866 31.29361,8.78695 -18.64781,-12.43154 -30.86476,-33.65076 -30.86476,-57.6574 0,-12.85965 3.4288,-24.64843 9.43063,-34.93719 34.07996,42.01077 85.30789,69.44605 142.74978,72.44714 -1.07126,-5.14445 -1.71436,-10.5021 -1.71436,-15.8612 0,-38.15246 30.86474,-69.23125 69.23125,-69.23125 19.93368,0 37.93795,8.35926 50.58472,21.86273 15.64637,-3.00088 30.64962,-8.78811 43.9392,-16.71851 -5.14518,16.07592 -16.07586,29.57922 -30.43629,38.15199 13.93268,-1.49898 27.43565,-5.35831 39.86709,-10.71653 -9.42947,13.71701 -21.21889,25.93435 -34.72188,35.79424 z"
     id="path2"
     inkscape:connector-curvature="0"
     style="fill:#ffffff;fill-opacity:1;stroke-width:0.65976375" />
</svg>
