<?xml version="1.0" encoding="UTF-8" standalone="no"?>
<svg
   xmlns:dc="http://purl.org/dc/elements/1.1/"
   xmlns:cc="http://creativecommons.org/ns#"
   xmlns:rdf="http://www.w3.org/1999/02/22-rdf-syntax-ns#"
   xmlns:svg="http://www.w3.org/2000/svg"
   xmlns="http://www.w3.org/2000/svg"
   xmlns:sodipodi="http://sodipodi.sourceforge.net/DTD/sodipodi-0.dtd"
   xmlns:inkscape="http://www.inkscape.org/namespaces/inkscape"
   width="48"
   height="48"
   version="1"
   id="svg825"
   sodipodi:docname="user-manual.svg"
   inkscape:version="0.92.4 5da689c313, 2019-01-14">
  <metadata
     id="metadata831">
    <rdf:RDF>
      <cc:Work
         rdf:about="">
        <dc:format>image/svg+xml</dc:format>
        <dc:type
           rdf:resource="http://purl.org/dc/dcmitype/StillImage" />
        <dc:title></dc:title>
      </cc:Work>
    </rdf:RDF>
  </metadata>
  <defs
     id="defs829" />
  <sodipodi:namedview
     pagecolor="#ffffff"
     bordercolor="#666666"
     borderopacity="1"
     objecttolerance="10"
     gridtolerance="10"
     guidetolerance="10"
     inkscape:pageopacity="0"
     inkscape:pageshadow="2"
     inkscape:window-width="640"
     inkscape:window-height="480"
     id="namedview827"
     showgrid="false"
     inkscape:zoom="11.104167"
     inkscape:cx="24"
     inkscape:cy="24"
     inkscape:current-layer="svg825" />
  <path
     style="opacity:0.2;stroke-width:1.11427307"
     d="M 24.137111,3.4288236 C 21.388044,3.4147453 18.588019,3.9411217 15.882356,5.0654117 5.0596936,9.5627812 -0.03238617,21.89499 4.46541,32.717649 8.9626761,43.540309 21.294989,48.632385 32.117646,44.134592 42.940309,39.637851 48.032382,27.305009 43.534588,16.482358 40.162033,8.3652531 32.382185,3.4711661 24.137111,3.4288236 Z M 24.000001,13.457277 A 11.142722,11.142722 0 0 1 35.142723,24.599998 11.142722,11.142722 0 0 1 24.000001,35.742723 11.142722,11.142722 0 0 1 12.857278,24.599998 11.142722,11.142722 0 0 1 24.000001,13.457277 Z"
     id="path815"
     inkscape:connector-curvature="0" />
  <path
     style="fill:#e4e4e4;stroke-width:1.11427307;stroke:#be4c4c;stroke-opacity:0.62222224"
     d="M 24.137111,2.3148288 C 21.388044,2.3007503 18.588019,2.8271265 15.882356,3.9514169 5.0596936,8.448789 -0.03238617,20.781 4.46541,31.603653 8.9626761,42.426309 21.294989,47.518392 32.117646,43.020594 42.940309,38.523859 48.032382,26.19102 43.534588,15.368353 40.162033,7.2512566 32.382185,2.3571711 24.137111,2.3148288 Z M 24.000001,12.343282 A 11.142722,11.142722 0 0 1 35.142723,23.48601 11.142722,11.142722 0 0 1 24.000001,34.62873 11.142722,11.142722 0 0 1 12.857278,23.48601 11.142722,11.142722 0 0 1 24.000001,12.343282 Z"
     id="path817"
     inkscape:connector-curvature="0" />
  <path
     style="opacity:0.2;fill:#ffffff;stroke-width:1.11427307"
     d="M 24.137111,2.3148288 C 21.388044,2.3007503 18.588019,2.8271265 15.882356,3.9514169 7.5661915,7.4072067 2.6551633,15.489953 2.8571147,23.958266 3.0934214,15.903586 7.9326814,8.3691872 15.882356,5.0656891 c 2.705663,-1.1242899 5.505688,-1.6506666 8.254755,-1.6365879 8.245074,0.042342 16.024922,4.9364286 19.397477,13.0535268 1.04189,2.506997 1.547602,5.094666 1.608295,7.647566 0.08551,-2.911161 -0.414232,-5.888666 -1.608295,-8.761841 C 40.162033,7.2512566 32.382185,2.3571711 24.137111,2.3148288 Z M 35.118785,23.947387 A 11.142722,11.142722 0 0 1 24.000001,34.62873 11.142722,11.142722 0 0 1 12.881218,24.138902 a 11.142722,11.142722 0 0 0 -0.02394,0.461382 11.142722,11.142722 0 0 0 11.142723,11.142719 11.142722,11.142722 0 0 0 11.142722,-11.142719 11.142722,11.142722 0 0 0 -0.02394,-0.652897 z"
     id="path819"
     inkscape:connector-curvature="0" />
  <path
     style="opacity:0.2;stroke-width:1.11427307"
     d="M 24.134931,1.2002791 C 21.537187,1.1868847 18.900289,1.6584619 16.3459,2.6431751 a 1.9566878,1.9755273 0 0 0 -1.131676,2.5484626 l 3.475569,9.2123393 a 1.9566878,1.9755273 0 0 0 2.524529,1.144742 c 0.888203,-0.34246 1.832758,-0.518867 2.783502,-0.520148 0.950077,0.0032 1.890147,0.182437 2.776975,0.526677 a 1.9566878,1.9755273 0 0 0 2.52888,-1.140395 l 3.4821,-9.2253909 A 1.9566878,1.9755273 0 0 0 31.651914,2.6388224 C 29.27915,1.7264374 26.739632,1.2137064 24.134931,1.2002791 Z M 3.8778052,15.685827 A 1.9755273,1.9566878 0 0 0 2.043173,16.945902 c -0.9847132,2.554393 -1.45628924,5.191291 -1.44289565,7.789029 0.0134285,2.604703 0.52615835,5.144225 1.43854305,7.516987 A 1.9755273,1.9566878 0 0 0 4.58946,33.385777 l 9.225393,-3.479927 a 1.9755273,1.9566878 0 0 0 1.140394,-2.531052 c -0.344238,-0.886823 -0.523107,-1.826893 -0.526679,-2.776973 0.0011,-0.950747 0.177695,-1.895292 0.520148,-2.783502 A 1.9755273,1.9566878 0 0 0 13.803977,19.289797 L 4.591636,15.81422 A 1.9755273,1.9566878 0 0 0 3.8778052,15.685827 Z m 40.2443878,0 a 1.9755273,1.9566878 0 0 0 -0.713828,0.128393 l -9.212338,3.475577 a 1.9755273,1.9566878 0 0 0 -1.144741,2.524526 c 0.342454,0.88821 0.518861,1.832755 0.520143,2.783502 -0.0032,0.95008 -0.182439,1.89015 -0.526673,2.776973 a 1.9755273,1.9566878 0 0 0 1.140388,2.531052 l 9.225398,3.479927 a 1.9755273,1.9566878 0 0 0 2.550634,-1.133859 c 0.912386,-2.372761 1.42512,-4.912284 1.438544,-7.516987 0.01344,-2.597738 -0.458183,-5.234636 -1.442898,-7.789029 A 1.9755273,1.9566878 0 0 0 44.122193,15.685827 Z M 27.540864,33.516356 a 1.9566878,1.9755273 0 0 0 -0.766065,0.128403 c -0.886828,0.34423 -1.826898,0.523102 -2.776975,0.526671 -0.950744,-0.0011 -1.895299,-0.177688 -2.783502,-0.520144 a 1.9566878,1.9755273 0 0 0 -2.524529,1.144741 l -3.475569,9.212336 a 1.9566878,1.9755273 0 0 0 1.131676,2.548464 c 2.554389,0.98471 5.191287,1.456289 7.789031,1.442894 2.604701,-0.01349 5.144221,-0.526156 7.516983,-1.438541 a 1.9566878,1.9755273 0 0 0 1.133865,-2.550637 l -3.4821,-9.225396 a 1.9566878,1.9755273 0 0 0 -1.762815,-1.268791 z"
     id="path821"
     inkscape:connector-curvature="0" />
  <path
     style="fill:#e74c3c;stroke-width:1.11427307"
     d="M 24.134931,0.08628418 C 21.537187,0.07288934 18.900289,0.54446673 16.3459,1.5291799 A 1.9566878,1.9755273 0 0 0 15.214224,4.077643 l 3.475569,9.212329 a 1.9566878,1.9755273 0 0 0 2.524529,1.144742 c 0.888203,-0.342442 1.832758,-0.518848 2.783502,-0.520135 0.950077,0.0032 1.890147,0.182439 2.776975,0.526664 a 1.9566878,1.9755273 0 0 0 2.52888,-1.140379 l 3.4821,-9.2253975 A 1.9566878,1.9755273 0 0 0 31.651914,1.5248273 C 29.27915,0.61244227 26.739632,0.09971148 24.134931,0.08628418 Z M 3.8778052,14.571822 A 1.9755273,1.9566878 0 0 0 2.043173,15.831911 c -0.9847132,2.554391 -1.45628924,5.191277 -1.44289565,7.789024 0.0134285,2.604709 0.52615835,5.144229 1.43854305,7.51699 A 1.9755273,1.9566878 0 0 0 4.58946,32.271786 l 9.225393,-3.479928 a 1.9755273,1.9566878 0 0 0 1.140394,-2.531052 c -0.344238,-0.886824 -0.523107,-1.826897 -0.526679,-2.776979 0.0011,-0.950739 0.177695,-1.895299 0.520148,-2.783501 A 1.9755273,1.9566878 0 0 0 13.803977,18.175798 L 4.591636,14.700234 A 1.9755273,1.9566878 0 0 0 3.8778052,14.571822 Z m 40.2443878,0 a 1.9755273,1.9566878 0 0 0 -0.713828,0.128412 l -9.212338,3.475564 a 1.9755273,1.9566878 0 0 0 -1.144741,2.524528 c 0.342454,0.888202 0.518861,1.832762 0.520143,2.783501 -0.0032,0.950082 -0.182439,1.890155 -0.526673,2.776979 a 1.9755273,1.9566878 0 0 0 1.140388,2.531052 l 9.225398,3.479928 a 1.9755273,1.9566878 0 0 0 2.550634,-1.133861 c 0.912386,-2.37276 1.42512,-4.912281 1.438544,-7.51699 0.01345,-2.597747 -0.458183,-5.234633 -1.442898,-7.789024 A 1.9755273,1.9566878 0 0 0 44.122193,14.571822 Z M 27.540864,32.402364 a 1.9566878,1.9755273 0 0 0 -0.766065,0.1284 c -0.886828,0.344233 -1.826898,0.523103 -2.776975,0.52667 -0.950744,-0.0011 -1.895299,-0.177685 -2.783502,-0.520141 a 1.9566878,1.9755273 0 0 0 -2.524529,1.144741 l -3.475569,9.212337 a 1.9566878,1.9755273 0 0 0 1.131676,2.548462 c 2.554389,0.984711 5.191287,1.456292 7.789031,1.442894 2.604701,-0.01349 5.144221,-0.526157 7.516983,-1.438545 a 1.9566878,1.9755273 0 0 0 1.133865,-2.550637 l -3.4821,-9.225392 a 1.9566878,1.9755273 0 0 0 -1.762815,-1.268789 z"
     id="path823"
     inkscape:connector-curvature="0" />
</svg>
