<?xml version="1.0" encoding="UTF-8" standalone="no"?>
<!-- Created with Inkscape (http://www.inkscape.org/) -->

<svg
   xmlns:dc="http://purl.org/dc/elements/1.1/"
   xmlns:cc="http://creativecommons.org/ns#"
   xmlns:rdf="http://www.w3.org/1999/02/22-rdf-syntax-ns#"
   xmlns:svg="http://www.w3.org/2000/svg"
   xmlns="http://www.w3.org/2000/svg"
   xmlns:xlink="http://www.w3.org/1999/xlink"
   xmlns:sodipodi="http://sodipodi.sourceforge.net/DTD/sodipodi-0.dtd"
   xmlns:inkscape="http://www.inkscape.org/namespaces/inkscape"
   width="48"
   height="48"
   viewBox="0 0 48 48"
   version="1.1"
   id="svg8"
   inkscape:version="0.92.4 5da689c313, 2019-01-14"
   sodipodi:docname="volume.svg">
  <title
     id="title7895">Antu icon Theme</title>
  <defs
     id="defs2">
    <linearGradient
       gradientTransform="matrix(0.23466667,0,0,0.23466667,-469.46491,1206.1407)"
       gradientUnits="userSpaceOnUse"
       y2="-5114.2363"
       x2="2102.8335"
       y1="-4960.8271"
       x1="2102.8335"
       id="linearGradient4836"
       xlink:href="#linearGradient2172"
       inkscape:collect="always" />
    <linearGradient
       id="linearGradient900"
       inkscape:collect="always">
      <stop
         id="stop896"
         offset="0"
         style="stop-color:#ffc900;stop-opacity:1" />
      <stop
         id="stop898"
         offset="1"
         style="stop-color:#ffe287;stop-opacity:1" />
    </linearGradient>
    <linearGradient
       id="linearGradient1196"
       inkscape:collect="always">
      <stop
         id="stop1190"
         offset="0"
         style="stop-color:#11151a;stop-opacity:1" />
      <stop
         id="stop1194"
         offset="1"
         style="stop-color:#2c3340;stop-opacity:1" />
    </linearGradient>
    <linearGradient
       inkscape:collect="always"
       id="linearGradient2172">
      <stop
         style="stop-color:#11151a;stop-opacity:1"
         offset="0"
         id="stop2168" />
      <stop
         style="stop-color:#353d4d;stop-opacity:1"
         offset="1"
         id="stop2170" />
    </linearGradient>
    <linearGradient
       id="linearGradient4582"
       inkscape:collect="always">
      <stop
         id="stop4578"
         offset="0"
         style="stop-color:#cee3e3;stop-opacity:1" />
      <stop
         id="stop4580"
         offset="1"
         style="stop-color:#fcfcfc;stop-opacity:1" />
    </linearGradient>
    <linearGradient
       inkscape:collect="always"
       xlink:href="#linearGradient2172"
       id="linearGradient1416"
       x1="24"
       y1="44.000004"
       x2="24"
       y2="4.0000048"
       gradientUnits="userSpaceOnUse" />
    <linearGradient
       inkscape:collect="always"
       xlink:href="#linearGradient4582"
       id="linearGradient1424"
       x1="32"
       y1="280.64999"
       x2="32"
       y2="277.64999"
       gradientUnits="userSpaceOnUse" />
    <linearGradient
       inkscape:collect="always"
       xlink:href="#linearGradient4582"
       id="linearGradient1432"
       x1="63.5"
       y1="280.64999"
       x2="63.5"
       y2="277.64999"
       gradientUnits="userSpaceOnUse" />
    <linearGradient
       inkscape:collect="always"
       xlink:href="#linearGradient4582"
       id="linearGradient1440"
       x1="32"
       y1="311.64999"
       x2="32"
       y2="308.64999"
       gradientUnits="userSpaceOnUse" />
    <linearGradient
       inkscape:collect="always"
       xlink:href="#linearGradient4582"
       id="linearGradient1448"
       x1="63"
       y1="311.64999"
       x2="63"
       y2="308.64999"
       gradientUnits="userSpaceOnUse" />
    <linearGradient
       inkscape:collect="always"
       xlink:href="#linearGradient900"
       id="linearGradient1464"
       x1="48"
       y1="310.64999"
       x2="48"
       y2="278.64999"
       gradientUnits="userSpaceOnUse" />
    <linearGradient
       inkscape:collect="always"
       xlink:href="#linearGradient1196"
       id="linearGradient1472"
       x1="48"
       y1="299.64999"
       x2="48"
       y2="289.64999"
       gradientUnits="userSpaceOnUse" />
    <linearGradient
       inkscape:collect="always"
       xlink:href="#linearGradient1196"
       id="linearGradient1480"
       x1="48"
       y1="298.64999"
       x2="48"
       y2="290.64999"
       gradientUnits="userSpaceOnUse" />
  </defs>
  <sodipodi:namedview
     id="base"
     pagecolor="#ffffff"
     bordercolor="#666666"
     borderopacity="1.0"
     inkscape:pageopacity="0.0"
     inkscape:pageshadow="2"
     inkscape:zoom="16"
     inkscape:cx="19.841667"
     inkscape:cy="27.072428"
     inkscape:document-units="px"
     inkscape:current-layer="g911"
     showgrid="true"
     units="px"
     inkscape:window-width="1920"
     inkscape:window-height="991"
     inkscape:window-x="0"
     inkscape:window-y="0"
     inkscape:window-maximized="1"
     objecttolerance="10"
     gridtolerance="10"
     guidetolerance="10"
     inkscape:snap-bbox="true"
     inkscape:bbox-nodes="true"
     inkscape:bbox-paths="true"
     inkscape:snap-bbox-edge-midpoints="true"
     inkscape:snap-bbox-midpoints="true"
     inkscape:object-paths="true"
     inkscape:snap-intersection-paths="true"
     inkscape:object-nodes="true"
     inkscape:snap-smooth-nodes="false"
     inkscape:snap-midpoints="false"
     inkscape:showpageshadow="false">
    <inkscape:grid
       type="xygrid"
       id="grid7897"
       empspacing="4" />
  </sodipodi:namedview>
  <metadata
     id="metadata5">
    <rdf:RDF>
      <cc:Work
         rdf:about="">
        <dc:format>image/svg+xml</dc:format>
        <dc:type
           rdf:resource="http://purl.org/dc/dcmitype/StillImage" />
        <dc:title>Antu icon Theme</dc:title>
      </cc:Work>
    </rdf:RDF>
  </metadata>
  <g
     inkscape:label="Capa 1"
     inkscape:groupmode="layer"
     id="layer1"
     transform="translate(0,-266.64999)">
    <g
       id="g1535"
       transform="translate(35,-15.000005)">
      <g
         id="g911"
         transform="translate(-35,15)">
        <g
           id="g5422"
           transform="translate(-24,-4)">
          <g
             transform="matrix(5.5433071,0,0,5.5433071,24.533333,-1328.2455)"
             id="layer1-3-2"
             inkscape:label="Capa 1" />
          <g
             id="g1500">
            <path
               id="rect4544"
               transform="translate(24,270.64999)"
               d="M 24 2 C 19.529535 2 15.382168 3.3244573 11.917969 5.5976562 C 11.093805 4.6271612 9.8787908 4 8.5 4 C 6.007 4 4 6.007 4 8.5 C 4 9.8787908 4.6271612 11.093805 5.5976562 11.917969 C 3.3244578 15.382168 2 19.529535 2 24 C 2 28.470454 3.3244578 32.617833 5.5976562 36.082031 C 4.6271612 36.906195 4 38.121209 4 39.5 C 4 41.993 6.007 44 8.5 44 C 9.8787908 44 11.093805 43.372839 11.917969 42.402344 C 15.382168 44.675545 19.529535 46 24 46 C 28.470456 46 32.617832 44.675545 36.082031 42.402344 C 36.906195 43.372839 38.121209 44 39.5 44 C 41.993 44 44 41.993 44 39.5 C 44 38.121209 43.372839 36.906195 42.402344 36.082031 C 44.675545 32.617833 46 28.470454 46 24 C 46 19.529535 44.675545 15.382168 42.402344 11.917969 C 43.372839 11.093805 44 9.8787908 44 8.5 C 44 6.007 41.993 4 39.5 4 C 38.121209 4 36.906195 4.6271612 36.082031 5.5976562 C 32.617832 3.3244573 28.470456 2 24 2 z "
               style="opacity:1;fill:url(#linearGradient1416);fill-opacity:1.0;stroke:none;stroke-width:0.30000001;stroke-miterlimit:4;stroke-dasharray:none;stroke-opacity:1" />
            <path
               id="rect4544-5"
               transform="translate(24,270.64999)"
               d="M 24 3 C 19.375108 3 15.122297 4.4973813 11.660156 7.0117188 C 11.101681 5.823851 9.9040858 5 8.5 5 C 6.561 5 5 6.561 5 8.5 C 5 9.9040858 5.823851 11.101681 7.0117188 11.660156 C 4.4973808 15.122297 3 19.375108 3 24 C 3 28.624896 4.4973808 32.877702 7.0117188 36.339844 C 5.823851 36.898319 5 38.095914 5 39.5 C 5 41.439 6.561 43 8.5 43 C 9.9040858 43 11.101681 42.176149 11.660156 40.988281 C 15.122297 43.502619 19.375108 45 24 45 C 28.624892 45 32.877703 43.502619 36.339844 40.988281 C 36.898319 42.176149 38.095914 43 39.5 43 C 41.439 43 43 41.439 43 39.5 C 43 38.095914 42.176149 36.898319 40.988281 36.339844 C 43.502619 32.877702 45 28.624896 45 24 C 45 19.375108 43.502619 15.122297 40.988281 11.660156 C 42.176149 11.101681 43 9.9040858 43 8.5 C 43 6.561 41.439 5 39.5 5 C 38.095914 5 36.898319 5.823851 36.339844 7.0117188 C 32.877703 4.4973813 28.624892 3 24 3 z "
               style="opacity:1;fill:url(#linearGradient4836);fill-opacity:1.0;stroke:none;stroke-width:0.30000001;stroke-miterlimit:4;stroke-dasharray:none;stroke-opacity:1" />
            <path
               id="rect1235-63-1"
               d="m 32.5,308.64999 c 0.831,0 1.5,0.669 1.5,1.5 0,0.831 -0.669,1.5 -1.5,1.5 -0.831,0 -1.5,-0.669 -1.5,-1.5 0,-0.831 0.669,-1.5 1.5,-1.5 z"
               style="opacity:1;fill:url(#linearGradient1440);fill-opacity:1;stroke:none;stroke-width:1.33333337;stroke-linecap:round;stroke-linejoin:round;stroke-miterlimit:4;stroke-dasharray:none;stroke-opacity:1" />
            <path
               id="rect1235-63-1-5"
               d="m 63.5,308.64999 c 0.831,0 1.5,0.669 1.5,1.5 0,0.831 -0.669,1.5 -1.5,1.5 -0.831,0 -1.5,-0.669 -1.5,-1.5 0,-0.831 0.669,-1.5 1.5,-1.5 z"
               style="opacity:1;fill:url(#linearGradient1448);fill-opacity:1;stroke:none;stroke-width:1.33333337;stroke-linecap:round;stroke-linejoin:round;stroke-miterlimit:4;stroke-dasharray:none;stroke-opacity:1" />
            <path
               id="rect1235-63-1-54"
               d="m 63.5,277.64999 c 0.831,0 1.5,0.669 1.5,1.5 0,0.831 -0.669,1.5 -1.5,1.5 -0.831,0 -1.5,-0.669 -1.5,-1.5 0,-0.831 0.669,-1.5 1.5,-1.5 z"
               style="opacity:1;fill:url(#linearGradient1432);fill-opacity:1;stroke:none;stroke-width:1.33333337;stroke-linecap:round;stroke-linejoin:round;stroke-miterlimit:4;stroke-dasharray:none;stroke-opacity:1" />
            <path
               id="rect1235-63-1-7"
               d="m 32.5,277.64999 c 0.831,0 1.5,0.669 1.5,1.5 0,0.831 -0.669,1.5 -1.5,1.5 -0.831,0 -1.5,-0.669 -1.5,-1.5 0,-0.831 0.669,-1.5 1.5,-1.5 z"
               style="opacity:1;fill:url(#linearGradient1424);fill-opacity:1;stroke:none;stroke-width:1.33333337;stroke-linecap:round;stroke-linejoin:round;stroke-miterlimit:4;stroke-dasharray:none;stroke-opacity:1" />
            <path
               id="rect1235-1-6-5"
               d="m 48,277.64999 c 9.418,0 17,7.582 17,17 0,9.418 -7.582,17 -17,17 -9.418,0 -17,-7.582 -17,-17 0,-9.418 7.582,-17 17,-17 z"
               style="opacity:1;fill:url(#linearGradient1464);fill-opacity:1;stroke:none;stroke-width:15.11111069;stroke-linecap:round;stroke-linejoin:round;stroke-miterlimit:4;stroke-dasharray:none;stroke-opacity:1" />
            <path
               id="rect1235-1-69"
               d="m 48,289.64999 c 2.77,0 5,2.23 5,5 0,2.77 -2.23,5 -5,5 -2.77,0 -5,-2.23 -5,-5 0,-2.77 2.23,-5 5,-5 z"
               style="opacity:1;fill:url(#linearGradient1472);fill-opacity:1.0;stroke:none;stroke-width:4.44444466;stroke-linecap:round;stroke-linejoin:round;stroke-miterlimit:4;stroke-dasharray:none;stroke-opacity:1" />
            <path
               id="rect1235-1-69-3"
               d="m 48,290.64999 c 2.216,0 4,1.784 4,4 0,2.216 -1.784,4 -4,4 -2.216,0 -4,-1.784 -4,-4 0,-2.216 1.784,-4 4,-4 z"
               style="opacity:1;fill:url(#linearGradient1480);fill-opacity:1;stroke:none;stroke-width:3.55555582;stroke-linecap:round;stroke-linejoin:round;stroke-miterlimit:4;stroke-dasharray:none;stroke-opacity:1" />
          </g>
        </g>
      </g>
    </g>
  </g>
</svg>
