<?xml version="1.0" encoding="iso-8859-1"?>
<!-- Generator: Adobe Illustrator 19.0.0, SVG Export Plug-In . SVG Version: 6.00 Build 0)  -->
<svg version="1.1" id="Capa_1" xmlns="http://www.w3.org/2000/svg" xmlns:xlink="http://www.w3.org/1999/xlink" x="0px" y="0px"
	 viewBox="0 0 512 512" style="enable-background:new 0 0 512 512;" xml:space="preserve">
<circle style="fill:#90CAF9;" cx="224" cy="288" r="208"/>
<path style="fill:#2196F3;" d="M224,64C100.48,64,0,164.48,0,288c0,123.488,100.48,224,224,224c123.488,0,224-100.512,224-224
	C448,164.48,347.488,64,224,64z M224,473.92c-28.864-27.52-50.72-60.896-64.16-97.664C180.736,370.848,202.304,368,224,368
	s43.264,2.848,64.128,8.256C274.688,413.056,252.864,446.432,224,473.92z M224,336c-24.832,0-49.504,3.36-73.408,9.664
	c-4.288-18.752-6.624-38.048-6.624-57.664s2.336-38.912,6.624-57.664C174.464,236.64,199.168,240,224,240s49.504-3.36,73.376-9.664
	C301.664,249.088,304,268.384,304,288s-2.336,38.912-6.624,57.664C273.504,339.36,248.832,336,224,336z M224,102.048
	c28.864,27.52,50.72,60.896,64.16,97.696C267.264,205.152,245.696,208,224,208s-43.296-2.848-64.16-8.256
	C173.28,162.944,195.104,129.568,224,102.048z M327.744,220.32c21.184-8.16,41.408-18.784,60.192-31.744
	C405.632,217.632,416,251.584,416,288s-10.368,70.368-28.064,99.424c-18.784-12.96-39.008-23.552-60.192-31.744
	C333.024,333.728,336,311.072,336,288S333.024,242.304,327.744,220.32z M369.184,162.72c-15.872,10.88-32.864,19.84-50.656,26.912
	c-11.712-32.288-29.184-62.24-51.616-88.64C307.36,110.272,342.912,132.32,369.184,162.72z M181.056,101.024
	c-22.432,26.4-39.936,56.32-51.616,88.608c-17.76-7.072-34.784-16.032-50.624-26.912
	C105.088,132.352,140.64,110.304,181.056,101.024z M60.064,188.576c18.784,12.96,38.976,23.552,60.16,31.744
	c-5.28,21.984-8.256,44.608-8.256,67.68s2.976,45.728,8.256,67.68c-21.184,8.16-41.408,18.784-60.16,31.744
	C42.368,358.368,32,324.416,32,288S42.368,217.632,60.064,188.576z M78.848,413.28c15.84-10.88,32.864-19.84,50.624-26.912
	c11.68,32.288,29.152,62.208,51.584,88.608C140.64,465.696,105.088,443.68,78.848,413.28z M266.912,475.008
	c22.432-26.4,39.904-56.32,51.584-88.608c17.792,7.072,34.784,16.032,50.656,26.912C342.912,443.68,307.36,465.696,266.912,475.008z
	"/>
<path style="fill:#FFC107;" d="M400,0c-61.76,0-112,50.24-112,112c0,57.472,89.856,159.264,100.096,170.688
	c3.04,3.36,7.36,5.312,11.904,5.312s8.864-1.952,11.904-5.312C422.144,271.264,512,169.472,512,112C512,50.24,461.76,0,400,0z"/>
<circle style="fill:#FAFAFA;" cx="400" cy="112" r="48"/>
<g>
</g>
<g>
</g>
<g>
</g>
<g>
</g>
<g>
</g>
<g>
</g>
<g>
</g>
<g>
</g>
<g>
</g>
<g>
</g>
<g>
</g>
<g>
</g>
<g>
</g>
<g>
</g>
<g>
</g>
</svg>
